<mxfile host="app.diagrams.net" agent="Mozilla/5.0 (Windows NT 10.0; Win64; x64) AppleWebKit/537.36 (KHTML, like Gecko) Chrome/136.0.0.0 Safari/537.36" version="27.0.6" pages="9">
  <diagram id="prtHgNgQTEPvFCAcTncT" name="中上游智能匹配">
    <mxGraphModel dx="1577" dy="654" grid="1" gridSize="10" guides="1" tooltips="1" connect="1" arrows="1" fold="1" page="1" pageScale="1" pageWidth="2339" pageHeight="3300" math="0" shadow="0">
      <root>
        <mxCell id="0" />
        <mxCell id="1" parent="0" />
        <mxCell id="G4k473hNy3UlmJ6TiarO-14" value="&lt;font style=&quot;font-size: 18px;&quot;&gt;上游—中游企业匹配&lt;/font&gt;" style="swimlane;childLayout=stackLayout;resizeParent=1;resizeParentMax=0;startSize=20;html=1;" parent="1" vertex="1">
          <mxGeometry x="690.0000000000005" y="550" width="1070" height="2050" as="geometry" />
        </mxCell>
        <mxCell id="iaTla6m8owf9gjWXvr2z-17" value="" style="edgeStyle=orthogonalEdgeStyle;shape=connector;rounded=0;orthogonalLoop=1;jettySize=auto;html=1;strokeColor=#ff0000;align=center;verticalAlign=bottom;fontFamily=Helvetica;fontSize=11;fontColor=default;labelBackgroundColor=default;endArrow=open;endSize=8;" parent="G4k473hNy3UlmJ6TiarO-14" source="G4k473hNy3UlmJ6TiarO-32" target="iaTla6m8owf9gjWXvr2z-16" edge="1">
          <mxGeometry relative="1" as="geometry" />
        </mxCell>
        <mxCell id="iaTla6m8owf9gjWXvr2z-56" style="edgeStyle=orthogonalEdgeStyle;shape=connector;rounded=0;orthogonalLoop=1;jettySize=auto;html=1;exitX=1;exitY=0.5;exitDx=0;exitDy=0;strokeColor=#ff0000;align=center;verticalAlign=bottom;fontFamily=Helvetica;fontSize=11;fontColor=default;labelBackgroundColor=default;endArrow=open;endSize=8;entryX=0;entryY=0.5;entryDx=0;entryDy=0;" parent="G4k473hNy3UlmJ6TiarO-14" source="iaTla6m8owf9gjWXvr2z-54" target="iaTla6m8owf9gjWXvr2z-57" edge="1">
          <mxGeometry relative="1" as="geometry">
            <mxPoint x="829.9999999999995" y="1687.2857142857147" as="targetPoint" />
          </mxGeometry>
        </mxCell>
        <mxCell id="G4k473hNy3UlmJ6TiarO-15" value="&lt;font style=&quot;font-size: 18px;&quot;&gt;智能单品制造商（中游）&lt;/font&gt;" style="swimlane;startSize=20;html=1;" parent="G4k473hNy3UlmJ6TiarO-14" vertex="1">
          <mxGeometry y="20" width="560" height="2030" as="geometry" />
        </mxCell>
        <mxCell id="G4k473hNy3UlmJ6TiarO-18" value="" style="ellipse;html=1;shape=startState;fillColor=#000000;strokeColor=#ff0000;" parent="G4k473hNy3UlmJ6TiarO-15" vertex="1">
          <mxGeometry x="232.5" y="30" width="20" height="20" as="geometry" />
        </mxCell>
        <mxCell id="G4k473hNy3UlmJ6TiarO-19" value="" style="edgeStyle=orthogonalEdgeStyle;html=1;verticalAlign=bottom;endArrow=open;endSize=8;strokeColor=#ff0000;rounded=0;" parent="G4k473hNy3UlmJ6TiarO-15" source="G4k473hNy3UlmJ6TiarO-18" edge="1">
          <mxGeometry relative="1" as="geometry">
            <mxPoint x="242.49999999999955" y="90" as="targetPoint" />
          </mxGeometry>
        </mxCell>
        <mxCell id="G4k473hNy3UlmJ6TiarO-20" value="&lt;font style=&quot;font-size: 18px;&quot;&gt;上传BOM表（初次需要）&lt;/font&gt;" style="rounded=1;whiteSpace=wrap;html=1;arcSize=40;fontColor=#000000;fillColor=#ffffc0;strokeColor=#ff0000;" parent="G4k473hNy3UlmJ6TiarO-15" vertex="1">
          <mxGeometry x="128.98" y="80" width="221.25" height="40" as="geometry" />
        </mxCell>
        <mxCell id="G4k473hNy3UlmJ6TiarO-21" value="" style="edgeStyle=orthogonalEdgeStyle;html=1;verticalAlign=bottom;endArrow=open;endSize=8;strokeColor=#ff0000;rounded=0;" parent="G4k473hNy3UlmJ6TiarO-15" source="G4k473hNy3UlmJ6TiarO-20" edge="1">
          <mxGeometry relative="1" as="geometry">
            <mxPoint x="242.49999999999955" y="190" as="targetPoint" />
          </mxGeometry>
        </mxCell>
        <mxCell id="G4k473hNy3UlmJ6TiarO-22" value="&lt;font style=&quot;font-size: 18px;&quot;&gt;填写产品数量需求，需要到货时间，匹配结束时间等&lt;/font&gt;" style="rounded=1;whiteSpace=wrap;html=1;arcSize=40;fontColor=#000000;fillColor=#ffffc0;strokeColor=#ff0000;" parent="G4k473hNy3UlmJ6TiarO-15" vertex="1">
          <mxGeometry x="130.23999999999998" y="150" width="222.03" height="70" as="geometry" />
        </mxCell>
        <mxCell id="G4k473hNy3UlmJ6TiarO-23" value="" style="edgeStyle=orthogonalEdgeStyle;html=1;verticalAlign=bottom;endArrow=open;endSize=8;strokeColor=#ff0000;rounded=0;entryX=0.5;entryY=0;entryDx=0;entryDy=0;entryPerimeter=0;fillColor=#FF0000;" parent="G4k473hNy3UlmJ6TiarO-15" source="G4k473hNy3UlmJ6TiarO-22" target="iaTla6m8owf9gjWXvr2z-1" edge="1">
          <mxGeometry relative="1" as="geometry">
            <mxPoint x="242.49999999999955" y="290" as="targetPoint" />
          </mxGeometry>
        </mxCell>
        <mxCell id="iaTla6m8owf9gjWXvr2z-25" style="edgeStyle=orthogonalEdgeStyle;shape=connector;rounded=0;orthogonalLoop=1;jettySize=auto;html=1;exitX=0.5;exitY=1;exitDx=0;exitDy=0;strokeColor=#ff0000;align=center;verticalAlign=bottom;fontFamily=Helvetica;fontSize=11;fontColor=default;labelBackgroundColor=default;endArrow=open;endSize=8;entryX=0.5;entryY=0;entryDx=0;entryDy=0;" parent="G4k473hNy3UlmJ6TiarO-15" source="G4k473hNy3UlmJ6TiarO-32" target="iaTla6m8owf9gjWXvr2z-26" edge="1">
          <mxGeometry relative="1" as="geometry">
            <mxPoint x="240.28571428571422" y="750" as="targetPoint" />
          </mxGeometry>
        </mxCell>
        <mxCell id="G4k473hNy3UlmJ6TiarO-32" value="&lt;font style=&quot;font-size: 18px;&quot;&gt;根据BOM表拆解的原材料发出多项匹配需求&lt;/font&gt;" style="rounded=1;whiteSpace=wrap;html=1;arcSize=40;fontColor=#000000;fillColor=#ffffc0;strokeColor=#ff0000;" parent="G4k473hNy3UlmJ6TiarO-15" vertex="1">
          <mxGeometry x="140" y="560" width="202.51" height="60" as="geometry" />
        </mxCell>
        <mxCell id="iaTla6m8owf9gjWXvr2z-51" value="" style="edgeStyle=orthogonalEdgeStyle;shape=connector;rounded=0;orthogonalLoop=1;jettySize=auto;html=1;strokeColor=#ff0000;align=center;verticalAlign=bottom;fontFamily=Helvetica;fontSize=11;fontColor=default;labelBackgroundColor=default;endArrow=open;endSize=8;" parent="G4k473hNy3UlmJ6TiarO-15" source="G4k473hNy3UlmJ6TiarO-51" target="iaTla6m8owf9gjWXvr2z-50" edge="1">
          <mxGeometry relative="1" as="geometry" />
        </mxCell>
        <mxCell id="G4k473hNy3UlmJ6TiarO-51" value="&lt;font style=&quot;font-size: 18px;&quot;&gt;系统根据匹配算法自动推荐合适的硬件厂商列表&lt;/font&gt;" style="whiteSpace=wrap;html=1;fillColor=#ffffc0;strokeColor=#ff0000;fontColor=#000000;rounded=1;arcSize=40;" parent="G4k473hNy3UlmJ6TiarO-15" vertex="1">
          <mxGeometry x="235" y="1040" width="210" height="60" as="geometry" />
        </mxCell>
        <mxCell id="iaTla6m8owf9gjWXvr2z-1" value="&lt;font style=&quot;font-size: 18px;&quot;&gt;根据BOM表自动计算所需硬件材料数量&lt;/font&gt;" style="rounded=1;whiteSpace=wrap;html=1;arcSize=40;fontColor=#000000;fillColor=#ffffc0;strokeColor=#ff0000;" parent="G4k473hNy3UlmJ6TiarO-15" vertex="1">
          <mxGeometry x="157.51" y="270" width="167.5" height="60" as="geometry" />
        </mxCell>
        <mxCell id="iaTla6m8owf9gjWXvr2z-3" value="&lt;font style=&quot;font-size: 18px;&quot;&gt;匹配要素偏好设置&lt;/font&gt;" style="rounded=1;whiteSpace=wrap;html=1;arcSize=40;fontColor=#000000;fillColor=#ffffc0;strokeColor=#ff0000;" parent="G4k473hNy3UlmJ6TiarO-15" vertex="1">
          <mxGeometry x="149.60999999999999" y="470" width="180" height="30" as="geometry" />
        </mxCell>
        <mxCell id="iaTla6m8owf9gjWXvr2z-4" value="" style="edgeStyle=orthogonalEdgeStyle;html=1;verticalAlign=bottom;endArrow=open;endSize=8;strokeColor=#ff0000;rounded=0;entryX=0.5;entryY=0;entryDx=0;entryDy=0;" parent="G4k473hNy3UlmJ6TiarO-15" source="iaTla6m8owf9gjWXvr2z-3" target="G4k473hNy3UlmJ6TiarO-32" edge="1">
          <mxGeometry relative="1" as="geometry">
            <mxPoint x="239.99999999999955" y="630" as="targetPoint" />
          </mxGeometry>
        </mxCell>
        <mxCell id="iaTla6m8owf9gjWXvr2z-7" value="&lt;font style=&quot;font-size: 18px;&quot;&gt;针对每种原材料填写可接受最高单价&lt;/font&gt;" style="whiteSpace=wrap;html=1;fillColor=#ffffc0;strokeColor=#ff0000;fontColor=#000000;rounded=1;arcSize=40;" parent="G4k473hNy3UlmJ6TiarO-15" vertex="1">
          <mxGeometry x="160.23" y="370" width="158.75" height="50" as="geometry" />
        </mxCell>
        <mxCell id="iaTla6m8owf9gjWXvr2z-9" value="" style="edgeStyle=orthogonalEdgeStyle;html=1;verticalAlign=bottom;endArrow=open;endSize=8;strokeColor=#ff0000;rounded=0;exitX=0.5;exitY=1;exitDx=0;exitDy=0;entryX=0.5;entryY=0;entryDx=0;entryDy=0;" parent="G4k473hNy3UlmJ6TiarO-15" source="iaTla6m8owf9gjWXvr2z-1" target="iaTla6m8owf9gjWXvr2z-7" edge="1">
          <mxGeometry relative="1" as="geometry">
            <mxPoint x="240.6599999999994" y="400" as="targetPoint" />
            <mxPoint x="240.53999999999996" y="340" as="sourcePoint" />
          </mxGeometry>
        </mxCell>
        <mxCell id="iaTla6m8owf9gjWXvr2z-11" value="" style="edgeStyle=orthogonalEdgeStyle;html=1;verticalAlign=bottom;endArrow=open;endSize=8;strokeColor=#ff0000;rounded=0;exitX=0.5;exitY=1;exitDx=0;exitDy=0;entryX=0.5;entryY=0;entryDx=0;entryDy=0;" parent="G4k473hNy3UlmJ6TiarO-15" source="iaTla6m8owf9gjWXvr2z-7" target="iaTla6m8owf9gjWXvr2z-3" edge="1">
          <mxGeometry relative="1" as="geometry">
            <mxPoint x="239.28999999999996" y="540" as="targetPoint" />
            <mxPoint x="239.28999999999996" y="470" as="sourcePoint" />
          </mxGeometry>
        </mxCell>
        <mxCell id="iaTla6m8owf9gjWXvr2z-26" value="&lt;font style=&quot;font-size: 18px;&quot;&gt;提前结束匹配&lt;/font&gt;" style="rhombus;whiteSpace=wrap;html=1;fontColor=#000000;fillColor=#ffffc0;strokeColor=#ff0000;fontFamily=Helvetica;fontSize=11;labelBackgroundColor=default;" parent="G4k473hNy3UlmJ6TiarO-15" vertex="1">
          <mxGeometry x="158.76" y="735" width="165" height="80" as="geometry" />
        </mxCell>
        <mxCell id="iaTla6m8owf9gjWXvr2z-27" value="no" style="edgeStyle=orthogonalEdgeStyle;html=1;align=left;verticalAlign=bottom;endArrow=open;endSize=8;strokeColor=#ff0000;rounded=0;fontFamily=Helvetica;fontSize=11;fontColor=default;labelBackgroundColor=default;entryX=0;entryY=0.5;entryDx=0;entryDy=0;" parent="G4k473hNy3UlmJ6TiarO-15" source="iaTla6m8owf9gjWXvr2z-26" target="iaTla6m8owf9gjWXvr2z-32" edge="1">
          <mxGeometry x="-1" relative="1" as="geometry">
            <mxPoint x="380" y="775" as="targetPoint" />
          </mxGeometry>
        </mxCell>
        <mxCell id="iaTla6m8owf9gjWXvr2z-28" value="yes" style="edgeStyle=orthogonalEdgeStyle;html=1;align=left;verticalAlign=top;endArrow=open;endSize=8;strokeColor=#ff0000;rounded=0;fontFamily=Helvetica;fontSize=11;fontColor=default;labelBackgroundColor=default;entryX=0.188;entryY=0.252;entryDx=0;entryDy=0;entryPerimeter=0;" parent="G4k473hNy3UlmJ6TiarO-15" source="iaTla6m8owf9gjWXvr2z-26" target="iaTla6m8owf9gjWXvr2z-37" edge="1">
          <mxGeometry x="-1" relative="1" as="geometry">
            <mxPoint x="239.99999999999955" y="970" as="targetPoint" />
          </mxGeometry>
        </mxCell>
        <mxCell id="iaTla6m8owf9gjWXvr2z-32" value="&lt;font style=&quot;font-size: 18px;&quot;&gt;等待更多企业接单&lt;/font&gt;" style="rounded=1;whiteSpace=wrap;html=1;arcSize=40;fontColor=#000000;fillColor=#ffffc0;strokeColor=#ff0000;fontFamily=Helvetica;fontSize=11;labelBackgroundColor=default;" parent="G4k473hNy3UlmJ6TiarO-15" vertex="1">
          <mxGeometry x="355" y="752.5" width="170" height="45" as="geometry" />
        </mxCell>
        <mxCell id="iaTla6m8owf9gjWXvr2z-33" value="" style="edgeStyle=orthogonalEdgeStyle;html=1;verticalAlign=bottom;endArrow=open;endSize=8;strokeColor=#ff0000;rounded=0;align=center;fontFamily=Helvetica;fontSize=11;fontColor=default;labelBackgroundColor=default;entryX=0.5;entryY=0;entryDx=0;entryDy=0;" parent="G4k473hNy3UlmJ6TiarO-15" source="iaTla6m8owf9gjWXvr2z-32" target="iaTla6m8owf9gjWXvr2z-34" edge="1">
          <mxGeometry relative="1" as="geometry">
            <mxPoint x="439.99999999999955" y="860" as="targetPoint" />
          </mxGeometry>
        </mxCell>
        <mxCell id="iaTla6m8owf9gjWXvr2z-34" value="&lt;font style=&quot;font-size: 18px;&quot;&gt;匹配时间结束&lt;/font&gt;" style="rhombus;whiteSpace=wrap;html=1;fontColor=#000000;fillColor=#ffffc0;strokeColor=#ff0000;fontFamily=Helvetica;fontSize=11;labelBackgroundColor=default;" parent="G4k473hNy3UlmJ6TiarO-15" vertex="1">
          <mxGeometry x="365" y="860" width="150" height="70" as="geometry" />
        </mxCell>
        <mxCell id="iaTla6m8owf9gjWXvr2z-35" value="no" style="edgeStyle=orthogonalEdgeStyle;html=1;align=left;verticalAlign=bottom;endArrow=open;endSize=8;strokeColor=#ff0000;rounded=0;fontFamily=Helvetica;fontSize=11;fontColor=default;labelBackgroundColor=default;entryX=1;entryY=0.5;entryDx=0;entryDy=0;" parent="G4k473hNy3UlmJ6TiarO-15" source="iaTla6m8owf9gjWXvr2z-34" target="iaTla6m8owf9gjWXvr2z-32" edge="1">
          <mxGeometry x="-1" relative="1" as="geometry">
            <mxPoint x="569.9999999999995" y="780" as="targetPoint" />
            <Array as="points">
              <mxPoint x="550" y="895" />
              <mxPoint x="550" y="775" />
            </Array>
          </mxGeometry>
        </mxCell>
        <mxCell id="iaTla6m8owf9gjWXvr2z-36" value="yes" style="edgeStyle=orthogonalEdgeStyle;html=1;align=left;verticalAlign=top;endArrow=open;endSize=8;strokeColor=#ff0000;rounded=0;fontFamily=Helvetica;fontSize=11;fontColor=default;labelBackgroundColor=default;entryX=0.813;entryY=0.252;entryDx=0;entryDy=0;entryPerimeter=0;" parent="G4k473hNy3UlmJ6TiarO-15" source="iaTla6m8owf9gjWXvr2z-34" target="iaTla6m8owf9gjWXvr2z-37" edge="1">
          <mxGeometry x="-1" relative="1" as="geometry">
            <mxPoint x="439.99999999999955" y="970" as="targetPoint" />
          </mxGeometry>
        </mxCell>
        <mxCell id="iaTla6m8owf9gjWXvr2z-37" value="" style="shape=line;html=1;strokeWidth=6;strokeColor=#ff0000;fontFamily=Helvetica;fontSize=11;fontColor=default;labelBackgroundColor=default;" parent="G4k473hNy3UlmJ6TiarO-15" vertex="1">
          <mxGeometry x="180" y="980" width="320" height="10" as="geometry" />
        </mxCell>
        <mxCell id="iaTla6m8owf9gjWXvr2z-38" value="" style="edgeStyle=orthogonalEdgeStyle;html=1;verticalAlign=bottom;endArrow=open;endSize=8;strokeColor=#ff0000;rounded=0;align=center;fontFamily=Helvetica;fontSize=11;fontColor=default;labelBackgroundColor=default;entryX=0.5;entryY=0;entryDx=0;entryDy=0;" parent="G4k473hNy3UlmJ6TiarO-15" source="iaTla6m8owf9gjWXvr2z-37" target="G4k473hNy3UlmJ6TiarO-51" edge="1">
          <mxGeometry relative="1" as="geometry">
            <mxPoint x="339.99999999999955" y="1050" as="targetPoint" />
          </mxGeometry>
        </mxCell>
        <mxCell id="iaTla6m8owf9gjWXvr2z-52" style="edgeStyle=orthogonalEdgeStyle;shape=connector;rounded=0;orthogonalLoop=1;jettySize=auto;html=1;exitX=0.5;exitY=1;exitDx=0;exitDy=0;strokeColor=#ff0000;align=center;verticalAlign=bottom;fontFamily=Helvetica;fontSize=11;fontColor=default;labelBackgroundColor=default;endArrow=open;endSize=8;entryX=0.5;entryY=0;entryDx=0;entryDy=0;" parent="G4k473hNy3UlmJ6TiarO-15" source="iaTla6m8owf9gjWXvr2z-50" target="iaTla6m8owf9gjWXvr2z-44" edge="1">
          <mxGeometry relative="1" as="geometry">
            <mxPoint x="340.2857142857142" y="1290" as="targetPoint" />
          </mxGeometry>
        </mxCell>
        <mxCell id="iaTla6m8owf9gjWXvr2z-50" value="&lt;font style=&quot;font-size: 18px;&quot;&gt;对推荐的企业进行AI分析和得分图表分析&lt;/font&gt;" style="whiteSpace=wrap;html=1;fillColor=#ffffc0;strokeColor=#ff0000;fontColor=#000000;rounded=1;arcSize=40;" parent="G4k473hNy3UlmJ6TiarO-15" vertex="1">
          <mxGeometry x="245" y="1150" width="190" height="60" as="geometry" />
        </mxCell>
        <mxCell id="iaTla6m8owf9gjWXvr2z-43" value="" style="edgeStyle=orthogonalEdgeStyle;shape=connector;rounded=0;orthogonalLoop=1;jettySize=auto;html=1;strokeColor=#ff0000;align=center;verticalAlign=bottom;fontFamily=Helvetica;fontSize=11;fontColor=default;labelBackgroundColor=default;endArrow=open;endSize=8;" parent="G4k473hNy3UlmJ6TiarO-15" source="iaTla6m8owf9gjWXvr2z-44" target="iaTla6m8owf9gjWXvr2z-45" edge="1">
          <mxGeometry relative="1" as="geometry" />
        </mxCell>
        <mxCell id="iaTla6m8owf9gjWXvr2z-44" value="&lt;font style=&quot;font-size: 18px;&quot;&gt;在推荐列表中选择硬件厂商进行合作&lt;/font&gt;" style="rounded=1;whiteSpace=wrap;html=1;arcSize=40;fontColor=#000000;fillColor=#ffffc0;strokeColor=#ff0000;" parent="G4k473hNy3UlmJ6TiarO-15" vertex="1">
          <mxGeometry x="263.75" y="1250" width="152.5" height="60" as="geometry" />
        </mxCell>
        <mxCell id="iaTla6m8owf9gjWXvr2z-53" style="edgeStyle=orthogonalEdgeStyle;shape=connector;rounded=0;orthogonalLoop=1;jettySize=auto;html=1;exitX=0.5;exitY=1;exitDx=0;exitDy=0;strokeColor=#ff0000;align=center;verticalAlign=bottom;fontFamily=Helvetica;fontSize=11;fontColor=default;labelBackgroundColor=default;endArrow=open;endSize=8;entryX=0.5;entryY=0;entryDx=0;entryDy=0;" parent="G4k473hNy3UlmJ6TiarO-15" source="iaTla6m8owf9gjWXvr2z-45" target="iaTla6m8owf9gjWXvr2z-39" edge="1">
          <mxGeometry relative="1" as="geometry">
            <mxPoint x="340.2857142857142" y="1510.0000000000005" as="targetPoint" />
          </mxGeometry>
        </mxCell>
        <mxCell id="iaTla6m8owf9gjWXvr2z-45" value="&lt;font style=&quot;font-size: 18px;&quot;&gt;通过文字或音视频聊天商讨交易细节&lt;/font&gt;" style="whiteSpace=wrap;html=1;fillColor=#ffffc0;strokeColor=#ff0000;fontColor=#000000;rounded=1;arcSize=40;" parent="G4k473hNy3UlmJ6TiarO-15" vertex="1">
          <mxGeometry x="260" y="1350" width="160" height="60" as="geometry" />
        </mxCell>
        <mxCell id="iaTla6m8owf9gjWXvr2z-55" value="" style="edgeStyle=orthogonalEdgeStyle;shape=connector;rounded=0;orthogonalLoop=1;jettySize=auto;html=1;strokeColor=#ff0000;align=center;verticalAlign=bottom;fontFamily=Helvetica;fontSize=11;fontColor=default;labelBackgroundColor=default;endArrow=open;endSize=8;" parent="G4k473hNy3UlmJ6TiarO-15" source="iaTla6m8owf9gjWXvr2z-39" target="iaTla6m8owf9gjWXvr2z-54" edge="1">
          <mxGeometry relative="1" as="geometry" />
        </mxCell>
        <mxCell id="iaTla6m8owf9gjWXvr2z-39" value="&lt;font style=&quot;font-size: 18px;&quot;&gt;根据匹配需求和接单信息生成订单&lt;/font&gt;" style="whiteSpace=wrap;html=1;fillColor=#ffffc0;strokeColor=#ff0000;fontColor=#000000;rounded=1;arcSize=40;" parent="G4k473hNy3UlmJ6TiarO-15" vertex="1">
          <mxGeometry x="260" y="1450" width="160" height="50" as="geometry" />
        </mxCell>
        <mxCell id="iaTla6m8owf9gjWXvr2z-54" value="&lt;font style=&quot;font-size: 18px;&quot;&gt;确认订单，签署合同&lt;/font&gt;" style="whiteSpace=wrap;html=1;fillColor=#ffffc0;strokeColor=#ff0000;fontColor=#000000;rounded=1;arcSize=40;" parent="G4k473hNy3UlmJ6TiarO-15" vertex="1">
          <mxGeometry x="250" y="1550" width="180" height="45" as="geometry" />
        </mxCell>
        <mxCell id="G4k473hNy3UlmJ6TiarO-64" value="&lt;font style=&quot;font-size: 18px;&quot;&gt;验收&lt;/font&gt;" style="rounded=1;whiteSpace=wrap;html=1;arcSize=40;fontColor=#000000;fillColor=#ffffc0;strokeColor=#ff0000;" parent="G4k473hNy3UlmJ6TiarO-15" vertex="1">
          <mxGeometry x="279.99999999999955" y="1655" width="120" height="40" as="geometry" />
        </mxCell>
        <mxCell id="G4k473hNy3UlmJ6TiarO-65" value="" style="edgeStyle=orthogonalEdgeStyle;html=1;verticalAlign=bottom;endArrow=open;endSize=8;strokeColor=#ff0000;rounded=0;entryX=0.5;entryY=0;entryDx=0;entryDy=0;" parent="G4k473hNy3UlmJ6TiarO-15" source="G4k473hNy3UlmJ6TiarO-64" edge="1" target="G4k473hNy3UlmJ6TiarO-68">
          <mxGeometry relative="1" as="geometry">
            <mxPoint x="339.99999999999955" y="1870" as="targetPoint" />
          </mxGeometry>
        </mxCell>
        <mxCell id="UzufWuBc8D3DKLEJEmvS-3" style="edgeStyle=orthogonalEdgeStyle;shape=connector;rounded=0;orthogonalLoop=1;jettySize=auto;html=1;exitX=0.5;exitY=1;exitDx=0;exitDy=0;entryX=0.5;entryY=0;entryDx=0;entryDy=0;strokeColor=#ff0000;align=center;verticalAlign=bottom;fontFamily=Helvetica;fontSize=11;fontColor=default;labelBackgroundColor=default;endArrow=open;endSize=8;" edge="1" parent="G4k473hNy3UlmJ6TiarO-15" source="G4k473hNy3UlmJ6TiarO-68" target="G4k473hNy3UlmJ6TiarO-70">
          <mxGeometry relative="1" as="geometry" />
        </mxCell>
        <mxCell id="G4k473hNy3UlmJ6TiarO-68" value="&lt;font style=&quot;font-size: 18px;&quot;&gt;服务评分&lt;/font&gt;" style="rounded=1;whiteSpace=wrap;html=1;arcSize=40;fontColor=#000000;fillColor=#ffffc0;strokeColor=#ff0000;" parent="G4k473hNy3UlmJ6TiarO-15" vertex="1">
          <mxGeometry x="279.99999999999955" y="1760" width="120" height="40" as="geometry" />
        </mxCell>
        <mxCell id="G4k473hNy3UlmJ6TiarO-70" value="&lt;font style=&quot;font-size: 18px;&quot;&gt;加入合作企业列表，便于下次合作&lt;/font&gt;" style="rounded=1;whiteSpace=wrap;html=1;arcSize=40;fontColor=#000000;fillColor=#ffffc0;strokeColor=#ff0000;" parent="G4k473hNy3UlmJ6TiarO-15" vertex="1">
          <mxGeometry x="260" y="1870" width="160" height="50" as="geometry" />
        </mxCell>
        <mxCell id="G4k473hNy3UlmJ6TiarO-71" value="" style="edgeStyle=orthogonalEdgeStyle;html=1;verticalAlign=bottom;endArrow=open;endSize=8;strokeColor=#ff0000;rounded=0;entryX=0.5;entryY=0;entryDx=0;entryDy=0;" parent="G4k473hNy3UlmJ6TiarO-15" source="G4k473hNy3UlmJ6TiarO-70" edge="1" target="G4k473hNy3UlmJ6TiarO-72">
          <mxGeometry relative="1" as="geometry">
            <mxPoint x="339.99999999999955" y="2070" as="targetPoint" />
          </mxGeometry>
        </mxCell>
        <mxCell id="G4k473hNy3UlmJ6TiarO-72" value="" style="ellipse;html=1;shape=endState;fillColor=#000000;strokeColor=#ff0000;" parent="G4k473hNy3UlmJ6TiarO-15" vertex="1">
          <mxGeometry x="325.00999999999954" y="1980" width="30" height="30" as="geometry" />
        </mxCell>
        <mxCell id="G4k473hNy3UlmJ6TiarO-16" value="&lt;font style=&quot;font-size: 18px;&quot;&gt;硬件厂商（上游）&lt;/font&gt;" style="swimlane;startSize=20;html=1;" parent="G4k473hNy3UlmJ6TiarO-14" vertex="1">
          <mxGeometry x="560" y="20" width="510" height="2030" as="geometry" />
        </mxCell>
        <mxCell id="iaTla6m8owf9gjWXvr2z-19" value="" style="edgeStyle=orthogonalEdgeStyle;shape=connector;rounded=0;orthogonalLoop=1;jettySize=auto;html=1;strokeColor=#ff0000;align=center;verticalAlign=bottom;fontFamily=Helvetica;fontSize=11;fontColor=default;labelBackgroundColor=default;endArrow=open;endSize=8;" parent="G4k473hNy3UlmJ6TiarO-16" source="iaTla6m8owf9gjWXvr2z-16" target="iaTla6m8owf9gjWXvr2z-18" edge="1">
          <mxGeometry relative="1" as="geometry" />
        </mxCell>
        <mxCell id="iaTla6m8owf9gjWXvr2z-16" value="&lt;font style=&quot;font-size: 18px;&quot;&gt;在需求列表中挑选后进行接单&lt;/font&gt;" style="whiteSpace=wrap;html=1;fillColor=#ffffc0;strokeColor=#ff0000;fontColor=#000000;rounded=1;arcSize=40;" parent="G4k473hNy3UlmJ6TiarO-16" vertex="1">
          <mxGeometry x="111.25" y="570" width="257.5" height="40" as="geometry" />
        </mxCell>
        <mxCell id="iaTla6m8owf9gjWXvr2z-60" value="" style="edgeStyle=orthogonalEdgeStyle;shape=connector;rounded=0;orthogonalLoop=1;jettySize=auto;html=1;strokeColor=#ff0000;align=center;verticalAlign=bottom;fontFamily=Helvetica;fontSize=11;fontColor=default;labelBackgroundColor=default;endArrow=open;endSize=8;entryX=0.5;entryY=0;entryDx=0;entryDy=0;" parent="G4k473hNy3UlmJ6TiarO-16" source="iaTla6m8owf9gjWXvr2z-18" target="iaTla6m8owf9gjWXvr2z-63" edge="1">
          <mxGeometry relative="1" as="geometry">
            <mxPoint x="240" y="830" as="targetPoint" />
          </mxGeometry>
        </mxCell>
        <mxCell id="iaTla6m8owf9gjWXvr2z-18" value="&lt;font style=&quot;font-size: 18px;&quot;&gt;定期查看该匹配状态&lt;/font&gt;" style="whiteSpace=wrap;html=1;fillColor=#ffffc0;strokeColor=#ff0000;fontColor=#000000;rounded=1;arcSize=40;" parent="G4k473hNy3UlmJ6TiarO-16" vertex="1">
          <mxGeometry x="156.25" y="740" width="167.5" height="40" as="geometry" />
        </mxCell>
        <mxCell id="iaTla6m8owf9gjWXvr2z-69" value="" style="edgeStyle=orthogonalEdgeStyle;shape=connector;rounded=0;orthogonalLoop=1;jettySize=auto;html=1;strokeColor=#ff0000;align=center;verticalAlign=bottom;fontFamily=Helvetica;fontSize=11;fontColor=default;labelBackgroundColor=default;endArrow=open;endSize=8;" parent="G4k473hNy3UlmJ6TiarO-16" source="iaTla6m8owf9gjWXvr2z-57" target="iaTla6m8owf9gjWXvr2z-68" edge="1">
          <mxGeometry relative="1" as="geometry" />
        </mxCell>
        <mxCell id="iaTla6m8owf9gjWXvr2z-57" value="&lt;font style=&quot;font-size: 18px;&quot;&gt;确认订单，签署合同&lt;/font&gt;" style="rounded=1;whiteSpace=wrap;html=1;arcSize=40;fontColor=#000000;fillColor=#ffffc0;strokeColor=#ff0000;fontFamily=Helvetica;fontSize=11;labelBackgroundColor=default;" parent="G4k473hNy3UlmJ6TiarO-16" vertex="1">
          <mxGeometry x="150" y="1556.25" width="180" height="32.5" as="geometry" />
        </mxCell>
        <mxCell id="iaTla6m8owf9gjWXvr2z-62" value="&lt;font style=&quot;font-size: 18px;&quot;&gt;查看订单状态&lt;/font&gt;" style="whiteSpace=wrap;html=1;fillColor=#ffffc0;strokeColor=#ff0000;fontColor=#000000;rounded=1;arcSize=40;" parent="G4k473hNy3UlmJ6TiarO-16" vertex="1">
          <mxGeometry x="175" y="960" width="130" height="40" as="geometry" />
        </mxCell>
        <mxCell id="iaTla6m8owf9gjWXvr2z-63" value="&lt;font style=&quot;font-size: 18px;&quot;&gt;中标&lt;/font&gt;" style="rhombus;whiteSpace=wrap;html=1;fontColor=#000000;fillColor=#ffffc0;strokeColor=#ff0000;fontFamily=Helvetica;fontSize=11;labelBackgroundColor=default;" parent="G4k473hNy3UlmJ6TiarO-16" vertex="1">
          <mxGeometry x="190" y="835" width="100" height="50" as="geometry" />
        </mxCell>
        <mxCell id="iaTla6m8owf9gjWXvr2z-64" value="no" style="edgeStyle=orthogonalEdgeStyle;html=1;align=left;verticalAlign=bottom;endArrow=open;endSize=8;strokeColor=#ff0000;rounded=0;fontFamily=Helvetica;fontSize=11;fontColor=default;labelBackgroundColor=default;entryX=0;entryY=0.5;entryDx=0;entryDy=0;" parent="G4k473hNy3UlmJ6TiarO-16" source="iaTla6m8owf9gjWXvr2z-63" target="iaTla6m8owf9gjWXvr2z-66" edge="1">
          <mxGeometry x="-1" relative="1" as="geometry">
            <mxPoint x="379.99999999999955" y="860" as="targetPoint" />
          </mxGeometry>
        </mxCell>
        <mxCell id="iaTla6m8owf9gjWXvr2z-65" value="yes" style="edgeStyle=orthogonalEdgeStyle;html=1;align=left;verticalAlign=top;endArrow=open;endSize=8;strokeColor=#ff0000;rounded=0;fontFamily=Helvetica;fontSize=11;fontColor=default;labelBackgroundColor=default;entryX=0.5;entryY=0;entryDx=0;entryDy=0;" parent="G4k473hNy3UlmJ6TiarO-16" source="iaTla6m8owf9gjWXvr2z-63" target="iaTla6m8owf9gjWXvr2z-62" edge="1">
          <mxGeometry x="-1" relative="1" as="geometry">
            <mxPoint x="239.99999999999955" y="940" as="targetPoint" />
            <mxPoint as="offset" />
          </mxGeometry>
        </mxCell>
        <mxCell id="UzufWuBc8D3DKLEJEmvS-1" value="Text" style="edgeLabel;html=1;align=center;verticalAlign=middle;resizable=0;points=[];" vertex="1" connectable="0" parent="iaTla6m8owf9gjWXvr2z-65">
          <mxGeometry x="1" y="3" relative="1" as="geometry">
            <mxPoint x="-2" y="3" as="offset" />
          </mxGeometry>
        </mxCell>
        <mxCell id="iaTla6m8owf9gjWXvr2z-66" value="" style="ellipse;html=1;shape=endState;fillColor=#000000;strokeColor=#ff0000;fontFamily=Helvetica;fontSize=11;fontColor=default;labelBackgroundColor=default;" parent="G4k473hNy3UlmJ6TiarO-16" vertex="1">
          <mxGeometry x="339.99999999999955" y="845" width="30" height="30" as="geometry" />
        </mxCell>
        <mxCell id="iaTla6m8owf9gjWXvr2z-68" value="&lt;font style=&quot;font-size: 18px;&quot;&gt;按时交货&lt;/font&gt;" style="whiteSpace=wrap;html=1;fontSize=11;fillColor=#ffffc0;strokeColor=#ff0000;fontColor=#000000;rounded=1;arcSize=40;labelBackgroundColor=default;" parent="G4k473hNy3UlmJ6TiarO-16" vertex="1">
          <mxGeometry x="190" y="1660" width="100" height="30" as="geometry" />
        </mxCell>
        <mxCell id="iaTla6m8owf9gjWXvr2z-70" style="edgeStyle=orthogonalEdgeStyle;shape=connector;rounded=0;orthogonalLoop=1;jettySize=auto;html=1;entryX=1;entryY=0.5;entryDx=0;entryDy=0;strokeColor=#ff0000;align=center;verticalAlign=bottom;fontFamily=Helvetica;fontSize=11;fontColor=default;labelBackgroundColor=default;endArrow=open;endSize=8;" parent="G4k473hNy3UlmJ6TiarO-14" source="iaTla6m8owf9gjWXvr2z-68" target="G4k473hNy3UlmJ6TiarO-64" edge="1">
          <mxGeometry relative="1" as="geometry" />
        </mxCell>
      </root>
    </mxGraphModel>
  </diagram>
  <diagram id="7u9bPi9LvH8Y9y0cHNrz" name="中下游智能匹配">
    <mxGraphModel dx="2050" dy="850" grid="1" gridSize="10" guides="1" tooltips="1" connect="1" arrows="1" fold="1" page="1" pageScale="1" pageWidth="2339" pageHeight="3300" math="0" shadow="0">
      <root>
        <mxCell id="0" />
        <mxCell id="1" parent="0" />
        <mxCell id="Gj4Fg86rMPYZRkNIS9kM-61" value="&lt;font style=&quot;font-size: 18px;&quot;&gt;中游—下游企业匹配&lt;/font&gt;" style="swimlane;childLayout=stackLayout;resizeParent=1;resizeParentMax=0;startSize=20;html=1;" parent="1" vertex="1">
          <mxGeometry x="1020" y="620" width="1060" height="1900" as="geometry" />
        </mxCell>
        <mxCell id="Gj4Fg86rMPYZRkNIS9kM-63" value="&lt;font style=&quot;font-size: 18px;&quot;&gt;智能单品制造商（中游）&lt;/font&gt;" style="swimlane;startSize=20;html=1;" parent="Gj4Fg86rMPYZRkNIS9kM-61" vertex="1">
          <mxGeometry y="20" width="550" height="1880" as="geometry" />
        </mxCell>
        <mxCell id="Gj4Fg86rMPYZRkNIS9kM-108" value="" style="edgeStyle=orthogonalEdgeStyle;shape=connector;rounded=0;orthogonalLoop=1;jettySize=auto;html=1;strokeColor=#ff0000;align=center;verticalAlign=bottom;fontFamily=Helvetica;fontSize=11;fontColor=default;labelBackgroundColor=default;endArrow=open;endSize=8;" parent="Gj4Fg86rMPYZRkNIS9kM-63" source="Gj4Fg86rMPYZRkNIS9kM-109" target="Gj4Fg86rMPYZRkNIS9kM-111" edge="1">
          <mxGeometry relative="1" as="geometry" />
        </mxCell>
        <mxCell id="Gj4Fg86rMPYZRkNIS9kM-109" value="&lt;font style=&quot;font-size: 18px;&quot;&gt;在需求列表中挑选后进行接单&lt;/font&gt;" style="whiteSpace=wrap;html=1;fillColor=#ffffc0;strokeColor=#ff0000;fontColor=#000000;rounded=1;arcSize=40;" parent="Gj4Fg86rMPYZRkNIS9kM-63" vertex="1">
          <mxGeometry x="110" y="360" width="170" height="40" as="geometry" />
        </mxCell>
        <mxCell id="Gj4Fg86rMPYZRkNIS9kM-110" value="" style="edgeStyle=orthogonalEdgeStyle;shape=connector;rounded=0;orthogonalLoop=1;jettySize=auto;html=1;strokeColor=#ff0000;align=center;verticalAlign=bottom;fontFamily=Helvetica;fontSize=11;fontColor=default;labelBackgroundColor=default;endArrow=open;endSize=8;entryX=0.5;entryY=0;entryDx=0;entryDy=0;" parent="Gj4Fg86rMPYZRkNIS9kM-63" source="Gj4Fg86rMPYZRkNIS9kM-111" target="Gj4Fg86rMPYZRkNIS9kM-115" edge="1">
          <mxGeometry relative="1" as="geometry">
            <mxPoint x="195" y="550" as="targetPoint" />
          </mxGeometry>
        </mxCell>
        <mxCell id="Gj4Fg86rMPYZRkNIS9kM-111" value="&lt;font style=&quot;font-size: 18px;&quot;&gt;定期查看该匹配状态&lt;/font&gt;" style="whiteSpace=wrap;html=1;fillColor=#ffffc0;strokeColor=#ff0000;fontColor=#000000;rounded=1;arcSize=40;" parent="Gj4Fg86rMPYZRkNIS9kM-63" vertex="1">
          <mxGeometry x="103.75" y="470" width="182.5" height="30" as="geometry" />
        </mxCell>
        <mxCell id="Gj4Fg86rMPYZRkNIS9kM-114" value="&lt;font style=&quot;font-size: 18px;&quot;&gt;查看订单状态&lt;/font&gt;" style="whiteSpace=wrap;html=1;fillColor=#ffffc0;strokeColor=#ff0000;fontColor=#000000;rounded=1;arcSize=40;" parent="Gj4Fg86rMPYZRkNIS9kM-63" vertex="1">
          <mxGeometry x="135" y="680" width="120" height="30" as="geometry" />
        </mxCell>
        <mxCell id="Gj4Fg86rMPYZRkNIS9kM-115" value="&lt;font style=&quot;font-size: 18px;&quot;&gt;中标&lt;/font&gt;" style="rhombus;whiteSpace=wrap;html=1;fontColor=#000000;fillColor=#ffffc0;strokeColor=#ff0000;fontFamily=Helvetica;fontSize=11;labelBackgroundColor=default;" parent="Gj4Fg86rMPYZRkNIS9kM-63" vertex="1">
          <mxGeometry x="154.99999999999955" y="560" width="80" height="40" as="geometry" />
        </mxCell>
        <mxCell id="Gj4Fg86rMPYZRkNIS9kM-116" value="no" style="edgeStyle=orthogonalEdgeStyle;html=1;align=left;verticalAlign=bottom;endArrow=open;endSize=8;strokeColor=#ff0000;rounded=0;fontFamily=Helvetica;fontSize=11;fontColor=default;labelBackgroundColor=default;entryX=0;entryY=0.5;entryDx=0;entryDy=0;" parent="Gj4Fg86rMPYZRkNIS9kM-63" source="Gj4Fg86rMPYZRkNIS9kM-115" target="Gj4Fg86rMPYZRkNIS9kM-118" edge="1">
          <mxGeometry x="-1" relative="1" as="geometry">
            <mxPoint x="334.99999999999955" y="580" as="targetPoint" />
          </mxGeometry>
        </mxCell>
        <mxCell id="Gj4Fg86rMPYZRkNIS9kM-117" value="yes" style="edgeStyle=orthogonalEdgeStyle;html=1;align=left;verticalAlign=top;endArrow=open;endSize=8;strokeColor=#ff0000;rounded=0;fontFamily=Helvetica;fontSize=11;fontColor=default;labelBackgroundColor=default;entryX=0.5;entryY=0;entryDx=0;entryDy=0;" parent="Gj4Fg86rMPYZRkNIS9kM-63" source="Gj4Fg86rMPYZRkNIS9kM-115" target="Gj4Fg86rMPYZRkNIS9kM-114" edge="1">
          <mxGeometry x="-1" relative="1" as="geometry">
            <mxPoint x="194.99999999999955" y="660" as="targetPoint" />
          </mxGeometry>
        </mxCell>
        <mxCell id="Gj4Fg86rMPYZRkNIS9kM-118" value="" style="ellipse;html=1;shape=endState;fillColor=#000000;strokeColor=#ff0000;fontFamily=Helvetica;fontSize=11;fontColor=default;labelBackgroundColor=default;" parent="Gj4Fg86rMPYZRkNIS9kM-63" vertex="1">
          <mxGeometry x="294.99999999999955" y="565" width="30" height="30" as="geometry" />
        </mxCell>
        <mxCell id="Gj4Fg86rMPYZRkNIS9kM-113" value="&lt;font style=&quot;font-size: 18px;&quot;&gt;确认订单，签署合同&lt;/font&gt;" style="rounded=1;whiteSpace=wrap;html=1;arcSize=40;fontColor=#000000;fillColor=#ffffc0;strokeColor=#ff0000;fontFamily=Helvetica;fontSize=11;labelBackgroundColor=default;" parent="Gj4Fg86rMPYZRkNIS9kM-63" vertex="1">
          <mxGeometry x="255" y="1420" width="170" height="40" as="geometry" />
        </mxCell>
        <mxCell id="Gj4Fg86rMPYZRkNIS9kM-119" value="&lt;font style=&quot;font-size: 18px;&quot;&gt;按时交货&lt;/font&gt;" style="whiteSpace=wrap;html=1;fontSize=11;fillColor=#ffffc0;strokeColor=#ff0000;fontColor=#000000;rounded=1;arcSize=40;labelBackgroundColor=default;" parent="Gj4Fg86rMPYZRkNIS9kM-63" vertex="1">
          <mxGeometry x="290" y="1520" width="100" height="30" as="geometry" />
        </mxCell>
        <mxCell id="Gj4Fg86rMPYZRkNIS9kM-112" value="" style="edgeStyle=orthogonalEdgeStyle;shape=connector;rounded=0;orthogonalLoop=1;jettySize=auto;html=1;strokeColor=#ff0000;align=center;verticalAlign=bottom;fontFamily=Helvetica;fontSize=11;fontColor=default;labelBackgroundColor=default;endArrow=open;endSize=8;" parent="Gj4Fg86rMPYZRkNIS9kM-63" source="Gj4Fg86rMPYZRkNIS9kM-113" target="Gj4Fg86rMPYZRkNIS9kM-119" edge="1">
          <mxGeometry relative="1" as="geometry" />
        </mxCell>
        <mxCell id="Gj4Fg86rMPYZRkNIS9kM-107" value="&lt;font style=&quot;font-size: 18px;&quot;&gt;分销渠道商（下游）&lt;/font&gt;" style="swimlane;startSize=20;html=1;" parent="Gj4Fg86rMPYZRkNIS9kM-61" vertex="1">
          <mxGeometry x="550" y="20" width="510" height="1880" as="geometry" />
        </mxCell>
        <mxCell id="Gj4Fg86rMPYZRkNIS9kM-105" value="" style="ellipse;html=1;shape=endState;fillColor=#000000;strokeColor=#ff0000;" parent="Gj4Fg86rMPYZRkNIS9kM-107" vertex="1">
          <mxGeometry x="227.02999999999955" y="1825" width="30" height="30" as="geometry" />
        </mxCell>
        <mxCell id="Gj4Fg86rMPYZRkNIS9kM-64" value="" style="ellipse;html=1;shape=startState;fillColor=#000000;strokeColor=#ff0000;" parent="Gj4Fg86rMPYZRkNIS9kM-107" vertex="1">
          <mxGeometry x="141.4" y="60" width="20" height="20" as="geometry" />
        </mxCell>
        <mxCell id="Gj4Fg86rMPYZRkNIS9kM-65" value="" style="edgeStyle=orthogonalEdgeStyle;html=1;verticalAlign=bottom;endArrow=open;endSize=8;strokeColor=#ff0000;rounded=0;entryX=0.5;entryY=0;entryDx=0;entryDy=0;" parent="Gj4Fg86rMPYZRkNIS9kM-107" source="Gj4Fg86rMPYZRkNIS9kM-64" target="Gj4Fg86rMPYZRkNIS9kM-68" edge="1">
          <mxGeometry relative="1" as="geometry">
            <mxPoint x="153.26999999999956" y="10" as="targetPoint" />
          </mxGeometry>
        </mxCell>
        <mxCell id="Gj4Fg86rMPYZRkNIS9kM-68" value="&lt;font style=&quot;font-size: 18px;&quot;&gt;填写产品类别、数量、功能参数需求、需要到货时间、匹配结束时间、可接受最高单价等&lt;/font&gt;" style="rounded=1;whiteSpace=wrap;html=1;arcSize=40;fontColor=#000000;fillColor=#ffffc0;strokeColor=#ff0000;" parent="Gj4Fg86rMPYZRkNIS9kM-107" vertex="1">
          <mxGeometry x="11.399999999999997" y="130" width="281.26" height="80" as="geometry" />
        </mxCell>
        <mxCell id="Gj4Fg86rMPYZRkNIS9kM-70" style="edgeStyle=orthogonalEdgeStyle;shape=connector;rounded=0;orthogonalLoop=1;jettySize=auto;html=1;exitX=0.5;exitY=1;exitDx=0;exitDy=0;strokeColor=#ff0000;align=center;verticalAlign=bottom;fontFamily=Helvetica;fontSize=11;fontColor=default;labelBackgroundColor=default;endArrow=open;endSize=8;entryX=0.5;entryY=0;entryDx=0;entryDy=0;" parent="Gj4Fg86rMPYZRkNIS9kM-107" source="Gj4Fg86rMPYZRkNIS9kM-71" target="Gj4Fg86rMPYZRkNIS9kM-80" edge="1">
          <mxGeometry relative="1" as="geometry">
            <mxPoint x="152.31571428571422" y="580" as="targetPoint" />
          </mxGeometry>
        </mxCell>
        <mxCell id="Gj4Fg86rMPYZRkNIS9kM-71" value="&lt;font style=&quot;font-size: 18px;&quot;&gt;发出匹配需求&lt;/font&gt;" style="rounded=1;whiteSpace=wrap;html=1;arcSize=40;fontColor=#000000;fillColor=#ffffc0;strokeColor=#ff0000;" parent="Gj4Fg86rMPYZRkNIS9kM-107" vertex="1">
          <mxGeometry x="89.53" y="360" width="125" height="40" as="geometry" />
        </mxCell>
        <mxCell id="Gj4Fg86rMPYZRkNIS9kM-72" value="" style="edgeStyle=orthogonalEdgeStyle;shape=connector;rounded=0;orthogonalLoop=1;jettySize=auto;html=1;strokeColor=#ff0000;align=center;verticalAlign=bottom;fontFamily=Helvetica;fontSize=11;fontColor=default;labelBackgroundColor=default;endArrow=open;endSize=8;" parent="Gj4Fg86rMPYZRkNIS9kM-107" source="Gj4Fg86rMPYZRkNIS9kM-73" target="Gj4Fg86rMPYZRkNIS9kM-91" edge="1">
          <mxGeometry relative="1" as="geometry" />
        </mxCell>
        <mxCell id="Gj4Fg86rMPYZRkNIS9kM-73" value="&lt;font style=&quot;font-size: 18px;&quot;&gt;系统根据匹配算法自动推荐合适的智能设备厂商列表&lt;/font&gt;" style="whiteSpace=wrap;html=1;fillColor=#ffffc0;strokeColor=#ff0000;fontColor=#000000;rounded=1;arcSize=40;" parent="Gj4Fg86rMPYZRkNIS9kM-107" vertex="1">
          <mxGeometry x="133.51" y="800" width="237.03" height="60" as="geometry" />
        </mxCell>
        <mxCell id="Gj4Fg86rMPYZRkNIS9kM-75" value="&lt;font style=&quot;font-size: 18px;&quot;&gt;匹配要素偏好设置&lt;/font&gt;" style="rounded=1;whiteSpace=wrap;html=1;arcSize=40;fontColor=#000000;fillColor=#ffffc0;strokeColor=#ff0000;" parent="Gj4Fg86rMPYZRkNIS9kM-107" vertex="1">
          <mxGeometry x="67.42" y="260" width="167.97" height="30" as="geometry" />
        </mxCell>
        <mxCell id="Gj4Fg86rMPYZRkNIS9kM-76" value="" style="edgeStyle=orthogonalEdgeStyle;html=1;verticalAlign=bottom;endArrow=open;endSize=8;strokeColor=#ff0000;rounded=0;entryX=0.5;entryY=0;entryDx=0;entryDy=0;" parent="Gj4Fg86rMPYZRkNIS9kM-107" source="Gj4Fg86rMPYZRkNIS9kM-75" target="Gj4Fg86rMPYZRkNIS9kM-71" edge="1">
          <mxGeometry relative="1" as="geometry">
            <mxPoint x="152.02999999999955" y="460" as="targetPoint" />
          </mxGeometry>
        </mxCell>
        <mxCell id="Gj4Fg86rMPYZRkNIS9kM-79" value="" style="edgeStyle=orthogonalEdgeStyle;html=1;verticalAlign=bottom;endArrow=open;endSize=8;strokeColor=#ff0000;rounded=0;exitX=0.5;exitY=1;exitDx=0;exitDy=0;entryX=0.5;entryY=0;entryDx=0;entryDy=0;" parent="Gj4Fg86rMPYZRkNIS9kM-107" source="Gj4Fg86rMPYZRkNIS9kM-68" target="Gj4Fg86rMPYZRkNIS9kM-75" edge="1">
          <mxGeometry relative="1" as="geometry">
            <mxPoint x="151.31999999999996" y="370" as="targetPoint" />
            <mxPoint x="151.01499999999987" y="230" as="sourcePoint" />
          </mxGeometry>
        </mxCell>
        <mxCell id="Gj4Fg86rMPYZRkNIS9kM-80" value="&lt;font style=&quot;font-size: 18px;&quot;&gt;提前结束匹配&lt;/font&gt;" style="rhombus;whiteSpace=wrap;html=1;fontColor=#000000;fillColor=#ffffc0;strokeColor=#ff0000;fontFamily=Helvetica;fontSize=11;labelBackgroundColor=default;" parent="Gj4Fg86rMPYZRkNIS9kM-107" vertex="1">
          <mxGeometry x="87.03" y="480" width="130" height="70" as="geometry" />
        </mxCell>
        <mxCell id="Gj4Fg86rMPYZRkNIS9kM-81" value="no" style="edgeStyle=orthogonalEdgeStyle;html=1;align=left;verticalAlign=bottom;endArrow=open;endSize=8;strokeColor=#ff0000;rounded=0;fontFamily=Helvetica;fontSize=11;fontColor=default;labelBackgroundColor=default;entryX=0;entryY=0.5;entryDx=0;entryDy=0;" parent="Gj4Fg86rMPYZRkNIS9kM-107" source="Gj4Fg86rMPYZRkNIS9kM-80" target="Gj4Fg86rMPYZRkNIS9kM-83" edge="1">
          <mxGeometry x="-1" relative="1" as="geometry">
            <mxPoint x="292.03" y="515" as="targetPoint" />
          </mxGeometry>
        </mxCell>
        <mxCell id="Gj4Fg86rMPYZRkNIS9kM-82" value="yes" style="edgeStyle=orthogonalEdgeStyle;html=1;align=left;verticalAlign=top;endArrow=open;endSize=8;strokeColor=#ff0000;rounded=0;fontFamily=Helvetica;fontSize=11;fontColor=default;labelBackgroundColor=default;entryX=0.188;entryY=0.252;entryDx=0;entryDy=0;entryPerimeter=0;" parent="Gj4Fg86rMPYZRkNIS9kM-107" source="Gj4Fg86rMPYZRkNIS9kM-80" target="Gj4Fg86rMPYZRkNIS9kM-88" edge="1">
          <mxGeometry x="-1" relative="1" as="geometry">
            <mxPoint x="152.02999999999955" y="710" as="targetPoint" />
          </mxGeometry>
        </mxCell>
        <mxCell id="Gj4Fg86rMPYZRkNIS9kM-83" value="&lt;font style=&quot;font-size: 18px;&quot;&gt;等待更多企业接单&lt;/font&gt;" style="rounded=1;whiteSpace=wrap;html=1;arcSize=40;fontColor=#000000;fillColor=#ffffc0;strokeColor=#ff0000;fontFamily=Helvetica;fontSize=11;labelBackgroundColor=default;" parent="Gj4Fg86rMPYZRkNIS9kM-107" vertex="1">
          <mxGeometry x="292.0299999999995" y="495" width="120" height="40" as="geometry" />
        </mxCell>
        <mxCell id="Gj4Fg86rMPYZRkNIS9kM-84" value="" style="edgeStyle=orthogonalEdgeStyle;html=1;verticalAlign=bottom;endArrow=open;endSize=8;strokeColor=#ff0000;rounded=0;align=center;fontFamily=Helvetica;fontSize=11;fontColor=default;labelBackgroundColor=default;entryX=0.5;entryY=0;entryDx=0;entryDy=0;" parent="Gj4Fg86rMPYZRkNIS9kM-107" source="Gj4Fg86rMPYZRkNIS9kM-83" target="Gj4Fg86rMPYZRkNIS9kM-85" edge="1">
          <mxGeometry relative="1" as="geometry">
            <mxPoint x="352.0299999999995" y="600" as="targetPoint" />
          </mxGeometry>
        </mxCell>
        <mxCell id="Gj4Fg86rMPYZRkNIS9kM-85" value="&lt;font style=&quot;font-size: 18px;&quot;&gt;匹配时间结束&lt;/font&gt;" style="rhombus;whiteSpace=wrap;html=1;fontColor=#000000;fillColor=#ffffc0;strokeColor=#ff0000;fontFamily=Helvetica;fontSize=11;labelBackgroundColor=default;" parent="Gj4Fg86rMPYZRkNIS9kM-107" vertex="1">
          <mxGeometry x="277.03" y="600" width="150" height="70" as="geometry" />
        </mxCell>
        <mxCell id="Gj4Fg86rMPYZRkNIS9kM-86" value="no" style="edgeStyle=orthogonalEdgeStyle;html=1;align=left;verticalAlign=bottom;endArrow=open;endSize=8;strokeColor=#ff0000;rounded=0;fontFamily=Helvetica;fontSize=11;fontColor=default;labelBackgroundColor=default;entryX=1;entryY=0.5;entryDx=0;entryDy=0;" parent="Gj4Fg86rMPYZRkNIS9kM-107" source="Gj4Fg86rMPYZRkNIS9kM-85" target="Gj4Fg86rMPYZRkNIS9kM-83" edge="1">
          <mxGeometry x="-1" relative="1" as="geometry">
            <mxPoint x="482.0299999999995" y="520" as="targetPoint" />
            <Array as="points">
              <mxPoint x="462.03" y="635" />
              <mxPoint x="462.03" y="515" />
            </Array>
          </mxGeometry>
        </mxCell>
        <mxCell id="Gj4Fg86rMPYZRkNIS9kM-87" value="yes" style="edgeStyle=orthogonalEdgeStyle;html=1;align=left;verticalAlign=top;endArrow=open;endSize=8;strokeColor=#ff0000;rounded=0;fontFamily=Helvetica;fontSize=11;fontColor=default;labelBackgroundColor=default;entryX=0.813;entryY=0.252;entryDx=0;entryDy=0;entryPerimeter=0;" parent="Gj4Fg86rMPYZRkNIS9kM-107" source="Gj4Fg86rMPYZRkNIS9kM-85" target="Gj4Fg86rMPYZRkNIS9kM-88" edge="1">
          <mxGeometry x="-1" relative="1" as="geometry">
            <mxPoint x="352.0299999999995" y="710" as="targetPoint" />
          </mxGeometry>
        </mxCell>
        <mxCell id="Gj4Fg86rMPYZRkNIS9kM-88" value="" style="shape=line;html=1;strokeWidth=6;strokeColor=#ff0000;fontFamily=Helvetica;fontSize=11;fontColor=default;labelBackgroundColor=default;" parent="Gj4Fg86rMPYZRkNIS9kM-107" vertex="1">
          <mxGeometry x="92.03" y="720" width="320" height="10" as="geometry" />
        </mxCell>
        <mxCell id="Gj4Fg86rMPYZRkNIS9kM-89" value="" style="edgeStyle=orthogonalEdgeStyle;html=1;verticalAlign=bottom;endArrow=open;endSize=8;strokeColor=#ff0000;rounded=0;align=center;fontFamily=Helvetica;fontSize=11;fontColor=default;labelBackgroundColor=default;entryX=0.5;entryY=0;entryDx=0;entryDy=0;" parent="Gj4Fg86rMPYZRkNIS9kM-107" source="Gj4Fg86rMPYZRkNIS9kM-88" target="Gj4Fg86rMPYZRkNIS9kM-73" edge="1">
          <mxGeometry relative="1" as="geometry">
            <mxPoint x="252.02999999999955" y="790" as="targetPoint" />
          </mxGeometry>
        </mxCell>
        <mxCell id="Gj4Fg86rMPYZRkNIS9kM-90" style="edgeStyle=orthogonalEdgeStyle;shape=connector;rounded=0;orthogonalLoop=1;jettySize=auto;html=1;exitX=0.5;exitY=1;exitDx=0;exitDy=0;strokeColor=#ff0000;align=center;verticalAlign=bottom;fontFamily=Helvetica;fontSize=11;fontColor=default;labelBackgroundColor=default;endArrow=open;endSize=8;entryX=0.5;entryY=0;entryDx=0;entryDy=0;" parent="Gj4Fg86rMPYZRkNIS9kM-107" source="Gj4Fg86rMPYZRkNIS9kM-91" target="Gj4Fg86rMPYZRkNIS9kM-93" edge="1">
          <mxGeometry relative="1" as="geometry">
            <mxPoint x="252.31571428571422" y="1030" as="targetPoint" />
          </mxGeometry>
        </mxCell>
        <mxCell id="Gj4Fg86rMPYZRkNIS9kM-91" value="&lt;font style=&quot;font-size: 18px;&quot;&gt;对推荐的企业进行AI分析和得分图表分析&lt;/font&gt;" style="whiteSpace=wrap;html=1;fillColor=#ffffc0;strokeColor=#ff0000;fontColor=#000000;rounded=1;arcSize=40;" parent="Gj4Fg86rMPYZRkNIS9kM-107" vertex="1">
          <mxGeometry x="161.01" y="930" width="182.03" height="50" as="geometry" />
        </mxCell>
        <mxCell id="Gj4Fg86rMPYZRkNIS9kM-92" value="" style="edgeStyle=orthogonalEdgeStyle;shape=connector;rounded=0;orthogonalLoop=1;jettySize=auto;html=1;strokeColor=#ff0000;align=center;verticalAlign=bottom;fontFamily=Helvetica;fontSize=11;fontColor=default;labelBackgroundColor=default;endArrow=open;endSize=8;" parent="Gj4Fg86rMPYZRkNIS9kM-107" source="Gj4Fg86rMPYZRkNIS9kM-93" target="Gj4Fg86rMPYZRkNIS9kM-95" edge="1">
          <mxGeometry relative="1" as="geometry" />
        </mxCell>
        <mxCell id="Gj4Fg86rMPYZRkNIS9kM-93" value="&lt;font style=&quot;font-size: 18px;&quot;&gt;在推荐列表中选择智能设备厂商进行合作&lt;/font&gt;" style="rounded=1;whiteSpace=wrap;html=1;arcSize=40;fontColor=#000000;fillColor=#ffffc0;strokeColor=#ff0000;" parent="Gj4Fg86rMPYZRkNIS9kM-107" vertex="1">
          <mxGeometry x="162.89" y="1040" width="178.28" height="60" as="geometry" />
        </mxCell>
        <mxCell id="Gj4Fg86rMPYZRkNIS9kM-94" style="edgeStyle=orthogonalEdgeStyle;shape=connector;rounded=0;orthogonalLoop=1;jettySize=auto;html=1;exitX=0.5;exitY=1;exitDx=0;exitDy=0;strokeColor=#ff0000;align=center;verticalAlign=bottom;fontFamily=Helvetica;fontSize=11;fontColor=default;labelBackgroundColor=default;endArrow=open;endSize=8;entryX=0.5;entryY=0;entryDx=0;entryDy=0;" parent="Gj4Fg86rMPYZRkNIS9kM-107" source="Gj4Fg86rMPYZRkNIS9kM-95" target="Gj4Fg86rMPYZRkNIS9kM-97" edge="1">
          <mxGeometry relative="1" as="geometry">
            <mxPoint x="252.31571428571422" y="1250.0000000000005" as="targetPoint" />
          </mxGeometry>
        </mxCell>
        <mxCell id="Gj4Fg86rMPYZRkNIS9kM-95" value="&lt;font style=&quot;font-size: 18px;&quot;&gt;通过文字或音视频聊天商讨交易细节&lt;/font&gt;" style="whiteSpace=wrap;html=1;fillColor=#ffffc0;strokeColor=#ff0000;fontColor=#000000;rounded=1;arcSize=40;" parent="Gj4Fg86rMPYZRkNIS9kM-107" vertex="1">
          <mxGeometry x="173.04" y="1140" width="157.97" height="60" as="geometry" />
        </mxCell>
        <mxCell id="Gj4Fg86rMPYZRkNIS9kM-96" value="" style="edgeStyle=orthogonalEdgeStyle;shape=connector;rounded=0;orthogonalLoop=1;jettySize=auto;html=1;strokeColor=#ff0000;align=center;verticalAlign=bottom;fontFamily=Helvetica;fontSize=11;fontColor=default;labelBackgroundColor=default;endArrow=open;endSize=8;" parent="Gj4Fg86rMPYZRkNIS9kM-107" source="Gj4Fg86rMPYZRkNIS9kM-97" target="Gj4Fg86rMPYZRkNIS9kM-98" edge="1">
          <mxGeometry relative="1" as="geometry" />
        </mxCell>
        <mxCell id="Gj4Fg86rMPYZRkNIS9kM-97" value="&lt;font style=&quot;font-size: 18px;&quot;&gt;根据匹配需求和接单信息生成订单&lt;/font&gt;" style="whiteSpace=wrap;html=1;fillColor=#ffffc0;strokeColor=#ff0000;fontColor=#000000;rounded=1;arcSize=40;" parent="Gj4Fg86rMPYZRkNIS9kM-107" vertex="1">
          <mxGeometry x="168.04" y="1280" width="167.97" height="50" as="geometry" />
        </mxCell>
        <mxCell id="Gj4Fg86rMPYZRkNIS9kM-98" value="&lt;font style=&quot;font-size: 18px;&quot;&gt;确认订单，签署合同&lt;/font&gt;" style="whiteSpace=wrap;html=1;fillColor=#ffffc0;strokeColor=#ff0000;fontColor=#000000;rounded=1;arcSize=40;" parent="Gj4Fg86rMPYZRkNIS9kM-107" vertex="1">
          <mxGeometry x="183.05" y="1400" width="137.97" height="55" as="geometry" />
        </mxCell>
        <mxCell id="Gj4Fg86rMPYZRkNIS9kM-99" value="&lt;font style=&quot;font-size: 18px;&quot;&gt;验收&lt;/font&gt;" style="rounded=1;whiteSpace=wrap;html=1;arcSize=40;fontColor=#000000;fillColor=#ffffc0;strokeColor=#ff0000;" parent="Gj4Fg86rMPYZRkNIS9kM-107" vertex="1">
          <mxGeometry x="182.02999999999955" y="1515" width="120" height="40" as="geometry" />
        </mxCell>
        <mxCell id="Gj4Fg86rMPYZRkNIS9kM-100" value="" style="edgeStyle=orthogonalEdgeStyle;html=1;verticalAlign=bottom;endArrow=open;endSize=8;strokeColor=#ff0000;rounded=0;entryX=0.5;entryY=0;entryDx=0;entryDy=0;" parent="Gj4Fg86rMPYZRkNIS9kM-107" source="Gj4Fg86rMPYZRkNIS9kM-99" edge="1" target="Gj4Fg86rMPYZRkNIS9kM-101">
          <mxGeometry relative="1" as="geometry">
            <mxPoint x="242.02999999999955" y="1745" as="targetPoint" />
          </mxGeometry>
        </mxCell>
        <mxCell id="Gj4Fg86rMPYZRkNIS9kM-101" value="&lt;font style=&quot;font-size: 18px;&quot;&gt;服务评分&lt;/font&gt;" style="rounded=1;whiteSpace=wrap;html=1;arcSize=40;fontColor=#000000;fillColor=#ffffc0;strokeColor=#ff0000;" parent="Gj4Fg86rMPYZRkNIS9kM-107" vertex="1">
          <mxGeometry x="182.02999999999955" y="1620" width="120" height="40" as="geometry" />
        </mxCell>
        <mxCell id="Gj4Fg86rMPYZRkNIS9kM-102" value="" style="edgeStyle=orthogonalEdgeStyle;html=1;verticalAlign=bottom;endArrow=open;endSize=8;strokeColor=#ff0000;rounded=0;" parent="Gj4Fg86rMPYZRkNIS9kM-107" source="Gj4Fg86rMPYZRkNIS9kM-101" edge="1">
          <mxGeometry relative="1" as="geometry">
            <mxPoint x="242.02999999999955" y="1720" as="targetPoint" />
          </mxGeometry>
        </mxCell>
        <mxCell id="Gj4Fg86rMPYZRkNIS9kM-103" value="&lt;font style=&quot;font-size: 18px;&quot;&gt;加入合作企业列表，便于下次合作&lt;/font&gt;" style="rounded=1;whiteSpace=wrap;html=1;arcSize=40;fontColor=#000000;fillColor=#ffffc0;strokeColor=#ff0000;" parent="Gj4Fg86rMPYZRkNIS9kM-107" vertex="1">
          <mxGeometry x="161.01000000000002" y="1710" width="162.03" height="50" as="geometry" />
        </mxCell>
        <mxCell id="Gj4Fg86rMPYZRkNIS9kM-104" value="" style="edgeStyle=orthogonalEdgeStyle;html=1;verticalAlign=bottom;endArrow=open;endSize=8;strokeColor=#ff0000;rounded=0;entryX=0.5;entryY=0;entryDx=0;entryDy=0;" parent="Gj4Fg86rMPYZRkNIS9kM-107" source="Gj4Fg86rMPYZRkNIS9kM-103" target="Gj4Fg86rMPYZRkNIS9kM-105" edge="1">
          <mxGeometry relative="1" as="geometry">
            <mxPoint x="242.02999999999975" y="1835" as="targetPoint" />
          </mxGeometry>
        </mxCell>
        <mxCell id="Gj4Fg86rMPYZRkNIS9kM-62" value="" style="edgeStyle=orthogonalEdgeStyle;shape=connector;rounded=0;orthogonalLoop=1;jettySize=auto;html=1;strokeColor=#ff0000;align=center;verticalAlign=bottom;fontFamily=Helvetica;fontSize=11;fontColor=default;labelBackgroundColor=default;endArrow=open;endSize=8;" parent="Gj4Fg86rMPYZRkNIS9kM-61" source="Gj4Fg86rMPYZRkNIS9kM-71" target="Gj4Fg86rMPYZRkNIS9kM-109" edge="1">
          <mxGeometry relative="1" as="geometry" />
        </mxCell>
        <mxCell id="Gj4Fg86rMPYZRkNIS9kM-106" style="edgeStyle=orthogonalEdgeStyle;shape=connector;rounded=0;orthogonalLoop=1;jettySize=auto;html=1;exitX=0;exitY=0.75;exitDx=0;exitDy=0;strokeColor=#ff0000;align=center;verticalAlign=bottom;fontFamily=Helvetica;fontSize=11;fontColor=default;labelBackgroundColor=default;endArrow=open;endSize=8;entryX=1;entryY=0.5;entryDx=0;entryDy=0;" parent="Gj4Fg86rMPYZRkNIS9kM-61" source="Gj4Fg86rMPYZRkNIS9kM-98" edge="1" target="Gj4Fg86rMPYZRkNIS9kM-113">
          <mxGeometry relative="1" as="geometry">
            <mxPoint x="400" y="1554" as="targetPoint" />
          </mxGeometry>
        </mxCell>
        <mxCell id="Gj4Fg86rMPYZRkNIS9kM-120" style="edgeStyle=orthogonalEdgeStyle;shape=connector;rounded=0;orthogonalLoop=1;jettySize=auto;html=1;entryX=0;entryY=0.5;entryDx=0;entryDy=0;strokeColor=#ff0000;align=center;verticalAlign=bottom;fontFamily=Helvetica;fontSize=11;fontColor=default;labelBackgroundColor=default;endArrow=open;endSize=8;" parent="Gj4Fg86rMPYZRkNIS9kM-61" source="Gj4Fg86rMPYZRkNIS9kM-119" target="Gj4Fg86rMPYZRkNIS9kM-99" edge="1">
          <mxGeometry relative="1" as="geometry" />
        </mxCell>
      </root>
    </mxGraphModel>
  </diagram>
  <diagram id="WC9jFhKxyjIKSGYVOIR_" name="共享仓储">
    <mxGraphModel dx="2278" dy="944" grid="1" gridSize="10" guides="1" tooltips="1" connect="1" arrows="1" fold="1" page="1" pageScale="1" pageWidth="2339" pageHeight="3300" math="0" shadow="0">
      <root>
        <mxCell id="0" />
        <mxCell id="1" parent="0" />
        <mxCell id="C_MoCRyomVMBf11L0ub7-1" value="&lt;font style=&quot;font-size: 18px;&quot;&gt;共享仓储&lt;/font&gt;" style="swimlane;childLayout=stackLayout;resizeParent=1;resizeParentMax=0;startSize=20;html=1;" parent="1" vertex="1">
          <mxGeometry x="610.0000000000005" y="580" width="1170" height="1010" as="geometry" />
        </mxCell>
        <mxCell id="C_MoCRyomVMBf11L0ub7-2" value="&lt;font style=&quot;font-size: 18px;&quot;&gt;server&lt;/font&gt;" style="swimlane;startSize=20;html=1;" parent="C_MoCRyomVMBf11L0ub7-1" vertex="1">
          <mxGeometry y="20" width="570" height="990" as="geometry" />
        </mxCell>
        <mxCell id="C_MoCRyomVMBf11L0ub7-8" value="" style="ellipse;html=1;shape=startState;fillColor=#000000;strokeColor=#ff0000;" parent="C_MoCRyomVMBf11L0ub7-2" vertex="1">
          <mxGeometry x="274.99999999999955" y="20" width="30" height="30" as="geometry" />
        </mxCell>
        <mxCell id="C_MoCRyomVMBf11L0ub7-9" value="" style="edgeStyle=orthogonalEdgeStyle;html=1;verticalAlign=bottom;endArrow=open;endSize=8;strokeColor=#ff0000;rounded=0;entryX=0.5;entryY=0;entryDx=0;entryDy=0;" parent="C_MoCRyomVMBf11L0ub7-2" source="C_MoCRyomVMBf11L0ub7-8" target="C_MoCRyomVMBf11L0ub7-10" edge="1">
          <mxGeometry relative="1" as="geometry">
            <mxPoint x="289.99999999999955" y="110" as="targetPoint" />
          </mxGeometry>
        </mxCell>
        <mxCell id="C_MoCRyomVMBf11L0ub7-10" value="&lt;font style=&quot;font-size: 18px;&quot;&gt;将企业闲置空间信息发布到平台上并及时更新&lt;/font&gt;" style="rounded=1;whiteSpace=wrap;html=1;arcSize=40;fontColor=#000000;fillColor=#ffffc0;strokeColor=#ff0000;" parent="C_MoCRyomVMBf11L0ub7-2" vertex="1">
          <mxGeometry x="190" y="100" width="200" height="60" as="geometry" />
        </mxCell>
        <mxCell id="C_MoCRyomVMBf11L0ub7-13" value="&lt;font style=&quot;font-size: 18px;&quot;&gt;到期后系统给双方企业发送系统通知和邮件提醒&lt;/font&gt;" style="rounded=1;whiteSpace=wrap;html=1;arcSize=40;fontColor=#000000;fillColor=#ffffc0;strokeColor=#ff0000;" parent="C_MoCRyomVMBf11L0ub7-2" vertex="1">
          <mxGeometry x="160" y="690" width="150" height="80" as="geometry" />
        </mxCell>
        <mxCell id="C_MoCRyomVMBf11L0ub7-3" value="&lt;font style=&quot;font-size: 18px;&quot;&gt;client&lt;/font&gt;" style="swimlane;startSize=20;html=1;" parent="C_MoCRyomVMBf11L0ub7-1" vertex="1">
          <mxGeometry x="570" y="20" width="600" height="990" as="geometry" />
        </mxCell>
        <mxCell id="C_MoCRyomVMBf11L0ub7-5" value="no" style="edgeStyle=orthogonalEdgeStyle;html=1;align=left;verticalAlign=bottom;endArrow=open;endSize=8;strokeColor=#ff0000;rounded=0;entryX=0.5;entryY=0;entryDx=0;entryDy=0;" parent="C_MoCRyomVMBf11L0ub7-3" source="C_MoCRyomVMBf11L0ub7-16" target="C_MoCRyomVMBf11L0ub7-11" edge="1">
          <mxGeometry x="-1" relative="1" as="geometry">
            <mxPoint x="119.99999999999955" y="405" as="targetPoint" />
            <Array as="points">
              <mxPoint x="-240" y="405" />
            </Array>
          </mxGeometry>
        </mxCell>
        <mxCell id="C_MoCRyomVMBf11L0ub7-6" value="" style="edgeStyle=orthogonalEdgeStyle;html=1;verticalAlign=bottom;endArrow=open;endSize=8;strokeColor=#ff0000;rounded=0;entryX=0.5;entryY=1;entryDx=0;entryDy=0;" parent="C_MoCRyomVMBf11L0ub7-3" source="C_MoCRyomVMBf11L0ub7-26" target="C_MoCRyomVMBf11L0ub7-11" edge="1">
          <mxGeometry relative="1" as="geometry">
            <mxPoint x="-150.00000000000045" y="530" as="targetPoint" />
          </mxGeometry>
        </mxCell>
        <mxCell id="C_MoCRyomVMBf11L0ub7-11" value="&lt;font style=&quot;font-size: 18px;&quot;&gt;双方签订协议&lt;/font&gt;" style="rounded=1;whiteSpace=wrap;html=1;arcSize=40;fontColor=#000000;fillColor=#ffffc0;strokeColor=#ff0000;" parent="C_MoCRyomVMBf11L0ub7-3" vertex="1">
          <mxGeometry x="-300.00000000000045" y="550" width="120" height="40" as="geometry" />
        </mxCell>
        <mxCell id="C_MoCRyomVMBf11L0ub7-14" value="" style="edgeStyle=orthogonalEdgeStyle;rounded=0;orthogonalLoop=1;jettySize=auto;html=1;strokeColor=#FF0000;entryX=0.5;entryY=0;entryDx=0;entryDy=0;" parent="C_MoCRyomVMBf11L0ub7-3" source="C_MoCRyomVMBf11L0ub7-15" target="C_MoCRyomVMBf11L0ub7-16" edge="1">
          <mxGeometry relative="1" as="geometry">
            <mxPoint x="329.99999999999955" y="380" as="targetPoint" />
          </mxGeometry>
        </mxCell>
        <mxCell id="C_MoCRyomVMBf11L0ub7-15" value="&lt;font style=&quot;font-size: 18px;&quot;&gt;选中合适的闲置空间进行预约&lt;/font&gt;" style="rounded=1;whiteSpace=wrap;html=1;arcSize=40;fontColor=#000000;fillColor=#ffffc0;strokeColor=#ff0000;" parent="C_MoCRyomVMBf11L0ub7-3" vertex="1">
          <mxGeometry x="200" y="230" width="260" height="30" as="geometry" />
        </mxCell>
        <mxCell id="C_MoCRyomVMBf11L0ub7-16" value="&lt;font style=&quot;font-size: 18px;&quot;&gt;有其他疑问&lt;/font&gt;" style="rhombus;whiteSpace=wrap;html=1;fontColor=#000000;fillColor=#ffffc0;strokeColor=#ff0000;" parent="C_MoCRyomVMBf11L0ub7-3" vertex="1">
          <mxGeometry x="247.5" y="370" width="165" height="60" as="geometry" />
        </mxCell>
        <mxCell id="C_MoCRyomVMBf11L0ub7-17" value="yes" style="edgeStyle=orthogonalEdgeStyle;html=1;align=left;verticalAlign=top;endArrow=open;endSize=8;strokeColor=#ff0000;rounded=0;entryX=0.5;entryY=0;entryDx=0;entryDy=0;" parent="C_MoCRyomVMBf11L0ub7-3" source="C_MoCRyomVMBf11L0ub7-16" target="C_MoCRyomVMBf11L0ub7-18" edge="1">
          <mxGeometry x="-1" relative="1" as="geometry">
            <mxPoint x="329.99999999999955" y="490" as="targetPoint" />
          </mxGeometry>
        </mxCell>
        <mxCell id="C_MoCRyomVMBf11L0ub7-18" value="&lt;font style=&quot;font-size: 18px;&quot;&gt;与对方企业进行商谈，交流相关细节&lt;/font&gt;" style="rounded=1;whiteSpace=wrap;html=1;arcSize=40;fontColor=#000000;fillColor=#ffffc0;strokeColor=#ff0000;" parent="C_MoCRyomVMBf11L0ub7-3" vertex="1">
          <mxGeometry x="250" y="490" width="160" height="60" as="geometry" />
        </mxCell>
        <mxCell id="C_MoCRyomVMBf11L0ub7-19" value="" style="edgeStyle=orthogonalEdgeStyle;html=1;verticalAlign=bottom;endArrow=open;endSize=8;strokeColor=#ff0000;rounded=0;entryX=0.5;entryY=0;entryDx=0;entryDy=0;" parent="C_MoCRyomVMBf11L0ub7-3" source="C_MoCRyomVMBf11L0ub7-18" target="C_MoCRyomVMBf11L0ub7-20" edge="1">
          <mxGeometry relative="1" as="geometry">
            <mxPoint x="329.99999999999955" y="580" as="targetPoint" />
          </mxGeometry>
        </mxCell>
        <mxCell id="C_MoCRyomVMBf11L0ub7-20" value="&lt;font style=&quot;font-size: 18px;&quot;&gt;对方在线&lt;/font&gt;" style="rhombus;whiteSpace=wrap;html=1;fontColor=#000000;fillColor=#ffffc0;strokeColor=#ff0000;" parent="C_MoCRyomVMBf11L0ub7-3" vertex="1">
          <mxGeometry x="290" y="590" width="80" height="40" as="geometry" />
        </mxCell>
        <mxCell id="C_MoCRyomVMBf11L0ub7-21" value="no" style="edgeStyle=orthogonalEdgeStyle;html=1;align=left;verticalAlign=bottom;endArrow=open;endSize=8;strokeColor=#ff0000;rounded=0;entryX=1;entryY=0.5;entryDx=0;entryDy=0;" parent="C_MoCRyomVMBf11L0ub7-3" source="C_MoCRyomVMBf11L0ub7-20" target="C_MoCRyomVMBf11L0ub7-23" edge="1">
          <mxGeometry x="-1" relative="1" as="geometry">
            <mxPoint x="219.99999999999955" y="610" as="targetPoint" />
          </mxGeometry>
        </mxCell>
        <mxCell id="C_MoCRyomVMBf11L0ub7-22" value="yes" style="edgeStyle=orthogonalEdgeStyle;html=1;align=left;verticalAlign=top;endArrow=open;endSize=8;strokeColor=#ff0000;rounded=0;entryX=1;entryY=0.5;entryDx=0;entryDy=0;" parent="C_MoCRyomVMBf11L0ub7-3" source="C_MoCRyomVMBf11L0ub7-20" target="C_MoCRyomVMBf11L0ub7-26" edge="1">
          <mxGeometry x="-1" relative="1" as="geometry">
            <mxPoint x="329.99999999999955" y="750" as="targetPoint" />
            <Array as="points">
              <mxPoint x="330" y="700" />
            </Array>
          </mxGeometry>
        </mxCell>
        <mxCell id="C_MoCRyomVMBf11L0ub7-23" value="&lt;font style=&quot;font-size: 18px;&quot;&gt;愿意等待&lt;/font&gt;" style="rhombus;whiteSpace=wrap;html=1;fontColor=#000000;fillColor=#ffffc0;strokeColor=#ff0000;" parent="C_MoCRyomVMBf11L0ub7-3" vertex="1">
          <mxGeometry x="105" y="580" width="150" height="50" as="geometry" />
        </mxCell>
        <mxCell id="C_MoCRyomVMBf11L0ub7-24" value="no" style="edgeStyle=orthogonalEdgeStyle;html=1;align=left;verticalAlign=bottom;endArrow=open;endSize=8;strokeColor=#ff0000;rounded=0;entryX=0.5;entryY=1;entryDx=0;entryDy=0;" parent="C_MoCRyomVMBf11L0ub7-3" source="C_MoCRyomVMBf11L0ub7-23" target="C_MoCRyomVMBf11L0ub7-27" edge="1">
          <mxGeometry x="-1" relative="1" as="geometry">
            <mxPoint x="179.99999999999955" y="550" as="targetPoint" />
          </mxGeometry>
        </mxCell>
        <mxCell id="C_MoCRyomVMBf11L0ub7-25" value="yes" style="edgeStyle=orthogonalEdgeStyle;html=1;align=left;verticalAlign=top;endArrow=open;endSize=8;strokeColor=#ff0000;rounded=0;entryX=0.5;entryY=0;entryDx=0;entryDy=0;" parent="C_MoCRyomVMBf11L0ub7-3" source="C_MoCRyomVMBf11L0ub7-23" target="C_MoCRyomVMBf11L0ub7-26" edge="1">
          <mxGeometry x="-1" relative="1" as="geometry">
            <mxPoint x="179.99999999999955" y="680" as="targetPoint" />
          </mxGeometry>
        </mxCell>
        <mxCell id="C_MoCRyomVMBf11L0ub7-26" value="&lt;font style=&quot;font-size: 18px;&quot;&gt;【对方上线后】商讨相关细节&lt;/font&gt;" style="rounded=1;whiteSpace=wrap;html=1;arcSize=40;fontColor=#000000;fillColor=#ffffc0;strokeColor=#ff0000;" parent="C_MoCRyomVMBf11L0ub7-3" vertex="1">
          <mxGeometry x="110" y="670" width="140" height="60" as="geometry" />
        </mxCell>
        <mxCell id="C_MoCRyomVMBf11L0ub7-27" value="" style="ellipse;html=1;shape=endState;fillColor=#000000;strokeColor=#ff0000;" parent="C_MoCRyomVMBf11L0ub7-3" vertex="1">
          <mxGeometry x="164.99999999999955" y="530" width="30" height="30" as="geometry" />
        </mxCell>
        <mxCell id="C_MoCRyomVMBf11L0ub7-28" value="&lt;font style=&quot;font-size: 18px;&quot;&gt;给对方服务打分&lt;/font&gt;" style="rounded=1;whiteSpace=wrap;html=1;arcSize=40;fontColor=#000000;fillColor=#ffffc0;strokeColor=#ff0000;" parent="C_MoCRyomVMBf11L0ub7-3" vertex="1">
          <mxGeometry x="190" y="860" width="150" height="40" as="geometry" />
        </mxCell>
        <mxCell id="C_MoCRyomVMBf11L0ub7-29" value="" style="ellipse;html=1;shape=endState;fillColor=#000000;strokeColor=#ff0000;" parent="C_MoCRyomVMBf11L0ub7-3" vertex="1">
          <mxGeometry x="399.99999999999955" y="865" width="30" height="30" as="geometry" />
        </mxCell>
        <mxCell id="C_MoCRyomVMBf11L0ub7-30" value="" style="edgeStyle=orthogonalEdgeStyle;html=1;verticalAlign=bottom;endArrow=open;endSize=8;strokeColor=#ff0000;rounded=0;entryX=0;entryY=0.5;entryDx=0;entryDy=0;" parent="C_MoCRyomVMBf11L0ub7-3" source="C_MoCRyomVMBf11L0ub7-28" target="C_MoCRyomVMBf11L0ub7-29" edge="1">
          <mxGeometry relative="1" as="geometry">
            <mxPoint x="509.99999999999955" y="880" as="targetPoint" />
            <Array as="points" />
          </mxGeometry>
        </mxCell>
        <mxCell id="O3qIMf2yWnwxli6l4Fmd-3" style="edgeStyle=orthogonalEdgeStyle;shape=connector;rounded=0;orthogonalLoop=1;jettySize=auto;html=1;entryX=0.5;entryY=0;entryDx=0;entryDy=0;strokeColor=#ff0000;align=center;verticalAlign=bottom;fontFamily=Helvetica;fontSize=11;fontColor=default;labelBackgroundColor=default;endArrow=open;endSize=8;" parent="C_MoCRyomVMBf11L0ub7-3" source="O3qIMf2yWnwxli6l4Fmd-1" target="C_MoCRyomVMBf11L0ub7-15" edge="1">
          <mxGeometry relative="1" as="geometry" />
        </mxCell>
        <mxCell id="O3qIMf2yWnwxli6l4Fmd-1" value="&lt;font style=&quot;font-size: 18px;&quot;&gt;划定区域，填写一系列参数进行仓储筛选&lt;/font&gt;" style="whiteSpace=wrap;html=1;fillColor=#ffffc0;strokeColor=#ff0000;fontColor=#000000;rounded=1;arcSize=40;" parent="C_MoCRyomVMBf11L0ub7-3" vertex="1">
          <mxGeometry x="240" y="100" width="180" height="60" as="geometry" />
        </mxCell>
        <mxCell id="O3qIMf2yWnwxli6l4Fmd-2" value="" style="edgeStyle=orthogonalEdgeStyle;shape=connector;rounded=0;orthogonalLoop=1;jettySize=auto;html=1;strokeColor=#ff0000;align=center;verticalAlign=bottom;fontFamily=Helvetica;fontSize=11;fontColor=default;labelBackgroundColor=default;endArrow=open;endSize=8;" parent="C_MoCRyomVMBf11L0ub7-1" source="C_MoCRyomVMBf11L0ub7-10" target="O3qIMf2yWnwxli6l4Fmd-1" edge="1">
          <mxGeometry relative="1" as="geometry" />
        </mxCell>
        <mxCell id="C_MoCRyomVMBf11L0ub7-7" value="" style="edgeStyle=orthogonalEdgeStyle;html=1;verticalAlign=bottom;endArrow=open;endSize=8;strokeColor=#ff0000;rounded=0;entryX=0;entryY=0.5;entryDx=0;entryDy=0;" parent="C_MoCRyomVMBf11L0ub7-1" source="C_MoCRyomVMBf11L0ub7-13" target="C_MoCRyomVMBf11L0ub7-28" edge="1">
          <mxGeometry relative="1" as="geometry">
            <mxPoint x="729.9999999999995" y="800" as="targetPoint" />
            <Array as="points">
              <mxPoint x="240" y="900" />
              <mxPoint x="735" y="900" />
            </Array>
          </mxGeometry>
        </mxCell>
        <mxCell id="C_MoCRyomVMBf11L0ub7-12" value="" style="edgeStyle=orthogonalEdgeStyle;html=1;verticalAlign=bottom;endArrow=open;endSize=8;strokeColor=#ff0000;rounded=0;entryX=0.5;entryY=0;entryDx=0;entryDy=0;exitX=0;exitY=0.5;exitDx=0;exitDy=0;" parent="C_MoCRyomVMBf11L0ub7-1" source="C_MoCRyomVMBf11L0ub7-11" target="C_MoCRyomVMBf11L0ub7-13" edge="1">
          <mxGeometry relative="1" as="geometry">
            <mxPoint x="309.99999999999955" y="500" as="targetPoint" />
          </mxGeometry>
        </mxCell>
      </root>
    </mxGraphModel>
  </diagram>
  <diagram id="lzDVngHNlnnM02wPSj3H" name="即时通讯">
    <mxGraphModel grid="1" page="1" gridSize="10" guides="1" tooltips="1" connect="1" arrows="1" fold="1" pageScale="1" pageWidth="2339" pageHeight="3300" math="0" shadow="0">
      <root>
        <mxCell id="0" />
        <mxCell id="1" parent="0" />
        <mxCell id="ql4WGs5BHcyklqwHBBwc-1" value="&lt;font style=&quot;font-size: 18px;&quot;&gt;企业间即时通讯&lt;/font&gt;" style="swimlane;childLayout=stackLayout;resizeParent=1;resizeParentMax=0;startSize=20;html=1;" parent="1" vertex="1">
          <mxGeometry x="590" y="790" width="1100" height="850" as="geometry" />
        </mxCell>
        <mxCell id="ql4WGs5BHcyklqwHBBwc-2" value="&lt;font style=&quot;font-size: 18px;&quot;&gt;企业A&lt;/font&gt;" style="swimlane;startSize=20;html=1;" parent="ql4WGs5BHcyklqwHBBwc-1" vertex="1">
          <mxGeometry y="20" width="340" height="830" as="geometry" />
        </mxCell>
        <mxCell id="ql4WGs5BHcyklqwHBBwc-3" value="" style="ellipse;html=1;shape=startState;fillColor=#000000;strokeColor=#ff0000;" parent="ql4WGs5BHcyklqwHBBwc-2" vertex="1">
          <mxGeometry x="155" y="30" width="30" height="30" as="geometry" />
        </mxCell>
        <mxCell id="ql4WGs5BHcyklqwHBBwc-4" value="" style="edgeStyle=orthogonalEdgeStyle;html=1;verticalAlign=bottom;endArrow=open;endSize=8;strokeColor=#ff0000;rounded=0;entryX=0.5;entryY=0;entryDx=0;entryDy=0;" parent="ql4WGs5BHcyklqwHBBwc-2" source="ql4WGs5BHcyklqwHBBwc-3" target="ql4WGs5BHcyklqwHBBwc-5" edge="1">
          <mxGeometry relative="1" as="geometry">
            <mxPoint x="170" y="120" as="targetPoint" />
          </mxGeometry>
        </mxCell>
        <mxCell id="ql4WGs5BHcyklqwHBBwc-5" value="&lt;font style=&quot;font-size: 18px;&quot;&gt;发起与B的对话&lt;/font&gt;" style="rounded=1;whiteSpace=wrap;html=1;arcSize=40;fontColor=#000000;fillColor=#ffffc0;strokeColor=#ff0000;" parent="ql4WGs5BHcyklqwHBBwc-2" vertex="1">
          <mxGeometry x="95" y="120" width="150" height="40" as="geometry" />
        </mxCell>
        <mxCell id="ql4WGs5BHcyklqwHBBwc-6" value="&lt;font style=&quot;font-size: 18px;&quot;&gt;服务器&lt;/font&gt;" style="swimlane;startSize=20;html=1;" parent="ql4WGs5BHcyklqwHBBwc-1" vertex="1">
          <mxGeometry x="340" y="20" width="420" height="830" as="geometry" />
        </mxCell>
        <mxCell id="ql4WGs5BHcyklqwHBBwc-7" value="&lt;font style=&quot;font-size: 18px;&quot;&gt;建立websocket连接&lt;/font&gt;" style="rounded=1;whiteSpace=wrap;html=1;arcSize=40;fontColor=#000000;fillColor=#ffffc0;strokeColor=#ff0000;" parent="ql4WGs5BHcyklqwHBBwc-6" vertex="1">
          <mxGeometry x="65" y="120" width="170" height="40" as="geometry" />
        </mxCell>
        <mxCell id="ql4WGs5BHcyklqwHBBwc-8" value="" style="edgeStyle=orthogonalEdgeStyle;html=1;verticalAlign=bottom;endArrow=open;endSize=8;strokeColor=#ff0000;rounded=0;entryX=0.5;entryY=0;entryDx=0;entryDy=0;" parent="ql4WGs5BHcyklqwHBBwc-6" source="ql4WGs5BHcyklqwHBBwc-7" target="ql4WGs5BHcyklqwHBBwc-9" edge="1">
          <mxGeometry relative="1" as="geometry">
            <mxPoint x="150" y="210" as="targetPoint" />
          </mxGeometry>
        </mxCell>
        <mxCell id="ql4WGs5BHcyklqwHBBwc-9" value="&lt;font style=&quot;font-size: 18px;&quot;&gt;B在线&lt;/font&gt;" style="rhombus;whiteSpace=wrap;html=1;fontColor=#000000;fillColor=#ffffc0;strokeColor=#ff0000;" parent="ql4WGs5BHcyklqwHBBwc-6" vertex="1">
          <mxGeometry x="110" y="210" width="80" height="40" as="geometry" />
        </mxCell>
        <mxCell id="ql4WGs5BHcyklqwHBBwc-10" value="no" style="edgeStyle=orthogonalEdgeStyle;html=1;align=left;verticalAlign=bottom;endArrow=open;endSize=8;strokeColor=#ff0000;rounded=0;entryX=0.5;entryY=0;entryDx=0;entryDy=0;" parent="ql4WGs5BHcyklqwHBBwc-6" source="ql4WGs5BHcyklqwHBBwc-9" target="ql4WGs5BHcyklqwHBBwc-11" edge="1">
          <mxGeometry x="-0.4325" y="-10" relative="1" as="geometry">
            <mxPoint x="150" y="300" as="targetPoint" />
            <mxPoint as="offset" />
          </mxGeometry>
        </mxCell>
        <mxCell id="ql4WGs5BHcyklqwHBBwc-11" value="&lt;font style=&quot;font-size: 18px;&quot;&gt;使用redis消息队列暂存消息&lt;/font&gt;" style="rounded=1;whiteSpace=wrap;html=1;arcSize=40;fontColor=#000000;fillColor=#ffffc0;strokeColor=#ff0000;" parent="ql4WGs5BHcyklqwHBBwc-6" vertex="1">
          <mxGeometry x="82.5" y="290" width="135" height="50" as="geometry" />
        </mxCell>
        <mxCell id="ql4WGs5BHcyklqwHBBwc-12" value="" style="edgeStyle=orthogonalEdgeStyle;html=1;verticalAlign=bottom;endArrow=open;endSize=8;strokeColor=#ff0000;rounded=0;" parent="ql4WGs5BHcyklqwHBBwc-6" source="ql4WGs5BHcyklqwHBBwc-11" edge="1">
          <mxGeometry relative="1" as="geometry">
            <mxPoint x="150" y="380" as="targetPoint" />
          </mxGeometry>
        </mxCell>
        <mxCell id="ql4WGs5BHcyklqwHBBwc-13" value="&lt;font style=&quot;font-size: 18px;&quot;&gt;B上线&lt;/font&gt;" style="rhombus;whiteSpace=wrap;html=1;fontColor=#000000;fillColor=#ffffc0;strokeColor=#ff0000;" parent="ql4WGs5BHcyklqwHBBwc-6" vertex="1">
          <mxGeometry x="110" y="380" width="80" height="40" as="geometry" />
        </mxCell>
        <mxCell id="ql4WGs5BHcyklqwHBBwc-14" value="no" style="edgeStyle=orthogonalEdgeStyle;html=1;align=left;verticalAlign=bottom;endArrow=open;endSize=8;strokeColor=#ff0000;rounded=0;entryX=1;entryY=0.5;entryDx=0;entryDy=0;" parent="ql4WGs5BHcyklqwHBBwc-6" source="ql4WGs5BHcyklqwHBBwc-13" target="ql4WGs5BHcyklqwHBBwc-11" edge="1">
          <mxGeometry x="-1" relative="1" as="geometry">
            <mxPoint x="290" y="400" as="targetPoint" />
            <Array as="points">
              <mxPoint x="250" y="400" />
              <mxPoint x="250" y="315" />
            </Array>
          </mxGeometry>
        </mxCell>
        <mxCell id="ql4WGs5BHcyklqwHBBwc-15" value="yes" style="edgeStyle=orthogonalEdgeStyle;html=1;align=left;verticalAlign=top;endArrow=open;endSize=8;strokeColor=#ff0000;rounded=0;entryX=0.5;entryY=0;entryDx=0;entryDy=0;" parent="ql4WGs5BHcyklqwHBBwc-6" source="ql4WGs5BHcyklqwHBBwc-13" target="ql4WGs5BHcyklqwHBBwc-16" edge="1">
          <mxGeometry x="-1" relative="1" as="geometry">
            <mxPoint x="150" y="480" as="targetPoint" />
          </mxGeometry>
        </mxCell>
        <mxCell id="ql4WGs5BHcyklqwHBBwc-16" value="&lt;font style=&quot;font-size: 18px;&quot;&gt;清空队列，将信息发送给B&lt;/font&gt;" style="rounded=1;whiteSpace=wrap;html=1;arcSize=40;fontColor=#000000;fillColor=#ffffc0;strokeColor=#ff0000;" parent="ql4WGs5BHcyklqwHBBwc-6" vertex="1">
          <mxGeometry x="85" y="480" width="130" height="50" as="geometry" />
        </mxCell>
        <mxCell id="ql4WGs5BHcyklqwHBBwc-17" value="" style="edgeStyle=orthogonalEdgeStyle;html=1;verticalAlign=bottom;endArrow=open;endSize=8;strokeColor=#ff0000;rounded=0;entryX=0.196;entryY=0.432;entryDx=0;entryDy=0;entryPerimeter=0;" parent="ql4WGs5BHcyklqwHBBwc-6" source="ql4WGs5BHcyklqwHBBwc-16" target="ql4WGs5BHcyklqwHBBwc-18" edge="1">
          <mxGeometry relative="1" as="geometry">
            <mxPoint x="150" y="560" as="targetPoint" />
          </mxGeometry>
        </mxCell>
        <mxCell id="ql4WGs5BHcyklqwHBBwc-18" value="" style="shape=line;html=1;strokeWidth=6;strokeColor=#ff0000;" parent="ql4WGs5BHcyklqwHBBwc-6" vertex="1">
          <mxGeometry x="110" y="560" width="200" height="10" as="geometry" />
        </mxCell>
        <mxCell id="ql4WGs5BHcyklqwHBBwc-19" value="" style="edgeStyle=orthogonalEdgeStyle;html=1;verticalAlign=bottom;endArrow=open;endSize=8;strokeColor=#ff0000;rounded=0;" parent="ql4WGs5BHcyklqwHBBwc-6" source="ql4WGs5BHcyklqwHBBwc-18" edge="1">
          <mxGeometry relative="1" as="geometry">
            <mxPoint x="210" y="640" as="targetPoint" />
          </mxGeometry>
        </mxCell>
        <mxCell id="ql4WGs5BHcyklqwHBBwc-20" value="&lt;font style=&quot;font-size: 18px;&quot;&gt;A离线，连接关闭&lt;/font&gt;" style="rounded=1;whiteSpace=wrap;html=1;arcSize=40;fontColor=#000000;fillColor=#ffffc0;strokeColor=#ff0000;" parent="ql4WGs5BHcyklqwHBBwc-6" vertex="1">
          <mxGeometry x="150" y="640" width="120" height="50" as="geometry" />
        </mxCell>
        <mxCell id="ql4WGs5BHcyklqwHBBwc-21" value="" style="edgeStyle=orthogonalEdgeStyle;html=1;verticalAlign=bottom;endArrow=open;endSize=8;strokeColor=#ff0000;rounded=0;entryX=0.5;entryY=0;entryDx=0;entryDy=0;" parent="ql4WGs5BHcyklqwHBBwc-6" source="ql4WGs5BHcyklqwHBBwc-20" target="ql4WGs5BHcyklqwHBBwc-22" edge="1">
          <mxGeometry relative="1" as="geometry">
            <mxPoint x="210" y="740" as="targetPoint" />
          </mxGeometry>
        </mxCell>
        <mxCell id="ql4WGs5BHcyklqwHBBwc-22" value="" style="ellipse;html=1;shape=endState;fillColor=#000000;strokeColor=#ff0000;" parent="ql4WGs5BHcyklqwHBBwc-6" vertex="1">
          <mxGeometry x="195" y="750" width="30" height="30" as="geometry" />
        </mxCell>
        <mxCell id="ql4WGs5BHcyklqwHBBwc-23" value="&lt;font style=&quot;font-size: 18px;&quot;&gt;企业B&lt;/font&gt;" style="swimlane;startSize=20;html=1;" parent="ql4WGs5BHcyklqwHBBwc-1" vertex="1">
          <mxGeometry x="760" y="20" width="340" height="830" as="geometry" />
        </mxCell>
        <mxCell id="ql4WGs5BHcyklqwHBBwc-24" value="&lt;font style=&quot;font-size: 18px;&quot;&gt;给A回复消息&lt;/font&gt;" style="rounded=1;whiteSpace=wrap;html=1;arcSize=40;fontColor=#000000;fillColor=#ffffc0;strokeColor=#ff0000;" parent="ql4WGs5BHcyklqwHBBwc-23" vertex="1">
          <mxGeometry x="100" y="210" width="120" height="40" as="geometry" />
        </mxCell>
        <mxCell id="ql4WGs5BHcyklqwHBBwc-25" value="" style="edgeStyle=orthogonalEdgeStyle;html=1;verticalAlign=bottom;endArrow=open;endSize=8;strokeColor=#ff0000;rounded=0;entryX=0;entryY=0.5;entryDx=0;entryDy=0;" parent="ql4WGs5BHcyklqwHBBwc-1" source="ql4WGs5BHcyklqwHBBwc-5" target="ql4WGs5BHcyklqwHBBwc-7" edge="1">
          <mxGeometry relative="1" as="geometry">
            <mxPoint x="430" y="160" as="targetPoint" />
          </mxGeometry>
        </mxCell>
        <mxCell id="ql4WGs5BHcyklqwHBBwc-26" value="yes" style="edgeStyle=orthogonalEdgeStyle;html=1;align=left;verticalAlign=top;endArrow=open;endSize=8;strokeColor=#ff0000;rounded=0;entryX=0;entryY=0.5;entryDx=0;entryDy=0;" parent="ql4WGs5BHcyklqwHBBwc-1" source="ql4WGs5BHcyklqwHBBwc-9" target="ql4WGs5BHcyklqwHBBwc-24" edge="1">
          <mxGeometry x="-0.9093" y="10" relative="1" as="geometry">
            <mxPoint x="750" y="250" as="targetPoint" />
            <mxPoint as="offset" />
          </mxGeometry>
        </mxCell>
        <mxCell id="ql4WGs5BHcyklqwHBBwc-27" value="" style="edgeStyle=orthogonalEdgeStyle;html=1;verticalAlign=bottom;endArrow=open;endSize=8;strokeColor=#ff0000;rounded=0;entryX=1;entryY=0.5;entryDx=0;entryDy=0;entryPerimeter=0;" parent="ql4WGs5BHcyklqwHBBwc-1" source="ql4WGs5BHcyklqwHBBwc-24" target="ql4WGs5BHcyklqwHBBwc-18" edge="1">
          <mxGeometry relative="1" as="geometry">
            <mxPoint x="830" y="580" as="targetPoint" />
            <Array as="points">
              <mxPoint x="920" y="585" />
            </Array>
          </mxGeometry>
        </mxCell>
      </root>
    </mxGraphModel>
  </diagram>
  <diagram id="KIBuUQBxBipPXdFoy2fU" name="数据分析">
    <mxGraphModel dx="1367" dy="567" grid="1" gridSize="10" guides="1" tooltips="1" connect="1" arrows="1" fold="1" page="1" pageScale="1" pageWidth="2339" pageHeight="3300" math="0" shadow="0">
      <root>
        <mxCell id="0" />
        <mxCell id="1" parent="0" />
        <mxCell id="U_9mJTfz5UO1NDgdKR0D-1" value="&lt;font style=&quot;font-size: 18px;&quot;&gt;数据分析&lt;/font&gt;" style="swimlane;childLayout=stackLayout;resizeParent=1;resizeParentMax=0;startSize=20;html=1;" parent="1" vertex="1">
          <mxGeometry x="560.0000000000005" y="1040" width="1220" height="550" as="geometry" />
        </mxCell>
        <mxCell id="U_9mJTfz5UO1NDgdKR0D-2" value="&lt;font style=&quot;font-size: 18px;&quot;&gt;电商平台（下游）&lt;/font&gt;" style="swimlane;startSize=20;html=1;" parent="U_9mJTfz5UO1NDgdKR0D-1" vertex="1">
          <mxGeometry y="20" width="370" height="530" as="geometry" />
        </mxCell>
        <mxCell id="U_9mJTfz5UO1NDgdKR0D-3" value="" style="ellipse;html=1;shape=startState;fillColor=#000000;strokeColor=#ff0000;" parent="U_9mJTfz5UO1NDgdKR0D-2" vertex="1">
          <mxGeometry x="177.49999999999955" y="30" width="30" height="30" as="geometry" />
        </mxCell>
        <mxCell id="U_9mJTfz5UO1NDgdKR0D-4" value="" style="edgeStyle=orthogonalEdgeStyle;html=1;verticalAlign=bottom;endArrow=open;endSize=8;strokeColor=#ff0000;rounded=0;entryX=0.5;entryY=0;entryDx=0;entryDy=0;" parent="U_9mJTfz5UO1NDgdKR0D-2" source="U_9mJTfz5UO1NDgdKR0D-3" target="U_9mJTfz5UO1NDgdKR0D-5" edge="1">
          <mxGeometry relative="1" as="geometry">
            <mxPoint x="192.49999999999955" y="120" as="targetPoint" />
          </mxGeometry>
        </mxCell>
        <mxCell id="U_9mJTfz5UO1NDgdKR0D-5" value="&lt;font style=&quot;font-size: 18px;&quot;&gt;上传订单数据&lt;/font&gt;" style="rounded=1;whiteSpace=wrap;html=1;arcSize=40;fontColor=#000000;fillColor=#ffffc0;strokeColor=#ff0000;" parent="U_9mJTfz5UO1NDgdKR0D-2" vertex="1">
          <mxGeometry x="132.49999999999955" y="100" width="120" height="40" as="geometry" />
        </mxCell>
        <mxCell id="U_9mJTfz5UO1NDgdKR0D-6" value="&lt;font style=&quot;font-size: 18px;&quot;&gt;服务器&lt;/font&gt;" style="swimlane;startSize=20;html=1;" parent="U_9mJTfz5UO1NDgdKR0D-1" vertex="1">
          <mxGeometry x="370" y="20" width="460" height="530" as="geometry" />
        </mxCell>
        <mxCell id="U_9mJTfz5UO1NDgdKR0D-7" value="" style="edgeStyle=orthogonalEdgeStyle;rounded=0;orthogonalLoop=1;jettySize=auto;html=1;strokeColor=#FF0000;" parent="U_9mJTfz5UO1NDgdKR0D-6" source="U_9mJTfz5UO1NDgdKR0D-8" target="U_9mJTfz5UO1NDgdKR0D-16" edge="1">
          <mxGeometry relative="1" as="geometry" />
        </mxCell>
        <mxCell id="U_9mJTfz5UO1NDgdKR0D-8" value="&lt;font style=&quot;font-size: 18px;&quot;&gt;整合分销渠道数据&lt;/font&gt;" style="rounded=1;whiteSpace=wrap;html=1;arcSize=40;fontColor=#000000;fillColor=#ffffc0;strokeColor=#ff0000;" parent="U_9mJTfz5UO1NDgdKR0D-6" vertex="1">
          <mxGeometry x="57.5" y="100" width="150" height="40" as="geometry" />
        </mxCell>
        <mxCell id="U_9mJTfz5UO1NDgdKR0D-9" value="" style="edgeStyle=orthogonalEdgeStyle;rounded=0;orthogonalLoop=1;jettySize=auto;html=1;strokeColor=#FF0000;" parent="U_9mJTfz5UO1NDgdKR0D-6" source="U_9mJTfz5UO1NDgdKR0D-10" target="U_9mJTfz5UO1NDgdKR0D-12" edge="1">
          <mxGeometry relative="1" as="geometry" />
        </mxCell>
        <mxCell id="U_9mJTfz5UO1NDgdKR0D-10" value="&lt;font style=&quot;font-size: 18px;&quot;&gt;整合各维修公司维修记录&lt;/font&gt;" style="whiteSpace=wrap;html=1;fillColor=#ffffc0;strokeColor=#ff0000;fontColor=#000000;rounded=1;arcSize=40;" parent="U_9mJTfz5UO1NDgdKR0D-6" vertex="1">
          <mxGeometry x="287.5" y="120" width="145" height="40" as="geometry" />
        </mxCell>
        <mxCell id="U_9mJTfz5UO1NDgdKR0D-11" value="" style="edgeStyle=orthogonalEdgeStyle;rounded=0;orthogonalLoop=1;jettySize=auto;html=1;strokeColor=#FF0000;" parent="U_9mJTfz5UO1NDgdKR0D-6" source="U_9mJTfz5UO1NDgdKR0D-12" target="U_9mJTfz5UO1NDgdKR0D-14" edge="1">
          <mxGeometry relative="1" as="geometry" />
        </mxCell>
        <mxCell id="U_9mJTfz5UO1NDgdKR0D-12" value="&lt;font style=&quot;font-size: 18px;&quot;&gt;分析维修记录数据，发现易损产品和零件&lt;/font&gt;" style="whiteSpace=wrap;html=1;fillColor=#ffffc0;strokeColor=#ff0000;fontColor=#000000;rounded=1;arcSize=40;" parent="U_9mJTfz5UO1NDgdKR0D-6" vertex="1">
          <mxGeometry x="285" y="220" width="150" height="70" as="geometry" />
        </mxCell>
        <mxCell id="U_9mJTfz5UO1NDgdKR0D-13" value="" style="edgeStyle=orthogonalEdgeStyle;rounded=0;orthogonalLoop=1;jettySize=auto;html=1;strokeColor=#FF0000;entryX=0.5;entryY=0;entryDx=0;entryDy=0;" parent="U_9mJTfz5UO1NDgdKR0D-6" source="U_9mJTfz5UO1NDgdKR0D-14" target="U_9mJTfz5UO1NDgdKR0D-20" edge="1">
          <mxGeometry relative="1" as="geometry">
            <mxPoint x="360" y="470" as="targetPoint" />
          </mxGeometry>
        </mxCell>
        <mxCell id="U_9mJTfz5UO1NDgdKR0D-14" value="&lt;font style=&quot;font-size: 18px;&quot;&gt;将分析结果反馈到中游和上游企业&lt;/font&gt;" style="whiteSpace=wrap;html=1;fillColor=#ffffc0;strokeColor=#ff0000;fontColor=#000000;rounded=1;arcSize=40;" parent="U_9mJTfz5UO1NDgdKR0D-6" vertex="1">
          <mxGeometry x="285" y="360" width="150" height="55" as="geometry" />
        </mxCell>
        <mxCell id="U_9mJTfz5UO1NDgdKR0D-15" value="" style="edgeStyle=orthogonalEdgeStyle;rounded=0;orthogonalLoop=1;jettySize=auto;html=1;strokeColor=#FF0000;" parent="U_9mJTfz5UO1NDgdKR0D-6" source="U_9mJTfz5UO1NDgdKR0D-16" target="U_9mJTfz5UO1NDgdKR0D-18" edge="1">
          <mxGeometry relative="1" as="geometry" />
        </mxCell>
        <mxCell id="U_9mJTfz5UO1NDgdKR0D-16" value="&lt;font style=&quot;font-size: 18px;&quot;&gt;分析数据，发现热销产品和热销渠道&lt;/font&gt;" style="whiteSpace=wrap;html=1;fillColor=#ffffc0;strokeColor=#ff0000;fontColor=#000000;rounded=1;arcSize=40;" parent="U_9mJTfz5UO1NDgdKR0D-6" vertex="1">
          <mxGeometry x="51.25" y="210" width="162.5" height="50" as="geometry" />
        </mxCell>
        <mxCell id="U_9mJTfz5UO1NDgdKR0D-17" value="" style="edgeStyle=orthogonalEdgeStyle;rounded=0;orthogonalLoop=1;jettySize=auto;html=1;strokeColor=#FF0000;entryX=0.5;entryY=0;entryDx=0;entryDy=0;" parent="U_9mJTfz5UO1NDgdKR0D-6" source="U_9mJTfz5UO1NDgdKR0D-18" target="U_9mJTfz5UO1NDgdKR0D-19" edge="1">
          <mxGeometry relative="1" as="geometry">
            <mxPoint x="132.5" y="440" as="targetPoint" />
          </mxGeometry>
        </mxCell>
        <mxCell id="U_9mJTfz5UO1NDgdKR0D-18" value="&lt;font style=&quot;font-size: 18px;&quot;&gt;将分析结果回馈给中游的智能单品厂商&lt;/font&gt;" style="whiteSpace=wrap;html=1;fillColor=#ffffc0;strokeColor=#ff0000;fontColor=#000000;rounded=1;arcSize=40;" parent="U_9mJTfz5UO1NDgdKR0D-6" vertex="1">
          <mxGeometry x="66.75" y="320" width="132.5" height="70" as="geometry" />
        </mxCell>
        <mxCell id="U_9mJTfz5UO1NDgdKR0D-19" value="" style="ellipse;html=1;shape=endState;fillColor=#000000;strokeColor=#ff0000;" parent="U_9mJTfz5UO1NDgdKR0D-6" vertex="1">
          <mxGeometry x="117.99999999999955" y="450" width="30" height="30" as="geometry" />
        </mxCell>
        <mxCell id="U_9mJTfz5UO1NDgdKR0D-20" value="" style="ellipse;html=1;shape=endState;fillColor=#000000;strokeColor=#ff0000;" parent="U_9mJTfz5UO1NDgdKR0D-6" vertex="1">
          <mxGeometry x="344.99999999999955" y="480" width="30" height="30" as="geometry" />
        </mxCell>
        <mxCell id="U_9mJTfz5UO1NDgdKR0D-21" value="&lt;font style=&quot;font-size: 18px;&quot;&gt;维修公司&lt;/font&gt;" style="swimlane;startSize=20;html=1;" parent="U_9mJTfz5UO1NDgdKR0D-1" vertex="1">
          <mxGeometry x="830" y="20" width="390" height="530" as="geometry" />
        </mxCell>
        <mxCell id="U_9mJTfz5UO1NDgdKR0D-22" value="" style="ellipse;html=1;shape=startState;fillColor=#000000;strokeColor=#ff0000;" parent="U_9mJTfz5UO1NDgdKR0D-21" vertex="1">
          <mxGeometry x="174.99999999999955" y="50" width="30" height="30" as="geometry" />
        </mxCell>
        <mxCell id="U_9mJTfz5UO1NDgdKR0D-23" value="" style="edgeStyle=orthogonalEdgeStyle;html=1;verticalAlign=bottom;endArrow=open;endSize=8;strokeColor=#ff0000;rounded=0;entryX=0.5;entryY=0;entryDx=0;entryDy=0;" parent="U_9mJTfz5UO1NDgdKR0D-21" source="U_9mJTfz5UO1NDgdKR0D-22" target="U_9mJTfz5UO1NDgdKR0D-24" edge="1">
          <mxGeometry relative="1" as="geometry">
            <mxPoint x="189.99999999999955" y="140" as="targetPoint" />
          </mxGeometry>
        </mxCell>
        <mxCell id="U_9mJTfz5UO1NDgdKR0D-24" value="&lt;font style=&quot;font-size: 18px;&quot;&gt;上传维修记录数据&lt;/font&gt;" style="rounded=1;whiteSpace=wrap;html=1;arcSize=40;fontColor=#000000;fillColor=#ffffc0;strokeColor=#ff0000;" parent="U_9mJTfz5UO1NDgdKR0D-21" vertex="1">
          <mxGeometry x="105" y="120" width="170" height="40" as="geometry" />
        </mxCell>
        <mxCell id="U_9mJTfz5UO1NDgdKR0D-25" value="" style="edgeStyle=orthogonalEdgeStyle;html=1;verticalAlign=bottom;endArrow=open;endSize=8;strokeColor=#ff0000;rounded=0;entryX=0;entryY=0.5;entryDx=0;entryDy=0;" parent="U_9mJTfz5UO1NDgdKR0D-1" source="U_9mJTfz5UO1NDgdKR0D-5" target="U_9mJTfz5UO1NDgdKR0D-8" edge="1">
          <mxGeometry relative="1" as="geometry">
            <mxPoint x="419.99999999999955" y="150" as="targetPoint" />
            <Array as="points">
              <mxPoint x="380" y="140" />
              <mxPoint x="380" y="140" />
            </Array>
          </mxGeometry>
        </mxCell>
        <mxCell id="U_9mJTfz5UO1NDgdKR0D-26" value="" style="edgeStyle=orthogonalEdgeStyle;rounded=0;orthogonalLoop=1;jettySize=auto;html=1;strokeColor=#FF0000;" parent="U_9mJTfz5UO1NDgdKR0D-1" source="U_9mJTfz5UO1NDgdKR0D-24" target="U_9mJTfz5UO1NDgdKR0D-10" edge="1">
          <mxGeometry relative="1" as="geometry" />
        </mxCell>
      </root>
    </mxGraphModel>
  </diagram>
  <diagram id="7-dbNKrstgIETqMNBl18" name="断链风险预警">
    <mxGraphModel dx="1985" dy="1050" grid="1" gridSize="10" guides="1" tooltips="1" connect="1" arrows="1" fold="1" page="1" pageScale="1" pageWidth="2339" pageHeight="3300" math="0" shadow="0">
      <root>
        <mxCell id="0" />
        <mxCell id="1" parent="0" />
        <mxCell id="eytuUMWvgPrelhzYIndJ-1" value="" style="ellipse;html=1;shape=startState;fillColor=#000000;strokeColor=#ff0000;" parent="1" vertex="1">
          <mxGeometry x="915" y="450" width="30" height="30" as="geometry" />
        </mxCell>
        <mxCell id="eytuUMWvgPrelhzYIndJ-2" value="" style="edgeStyle=orthogonalEdgeStyle;html=1;verticalAlign=bottom;endArrow=open;endSize=8;strokeColor=#ff0000;rounded=0;entryX=0.5;entryY=0;entryDx=0;entryDy=0;" parent="1" source="eytuUMWvgPrelhzYIndJ-1" target="eytuUMWvgPrelhzYIndJ-4" edge="1">
          <mxGeometry relative="1" as="geometry">
            <mxPoint x="930" y="540" as="targetPoint" />
          </mxGeometry>
        </mxCell>
        <mxCell id="eytuUMWvgPrelhzYIndJ-3" value="" style="edgeStyle=orthogonalEdgeStyle;rounded=0;orthogonalLoop=1;jettySize=auto;html=1;strokeColor=#FF0000;" parent="1" source="eytuUMWvgPrelhzYIndJ-4" target="eytuUMWvgPrelhzYIndJ-6" edge="1">
          <mxGeometry relative="1" as="geometry" />
        </mxCell>
        <mxCell id="eytuUMWvgPrelhzYIndJ-4" value="实时计算上中游企业的供应能力" style="rounded=1;whiteSpace=wrap;html=1;arcSize=40;fontColor=#000000;fillColor=#ffffc0;strokeColor=#ff0000;" parent="1" vertex="1">
          <mxGeometry x="867.5" y="520" width="125" height="50" as="geometry" />
        </mxCell>
        <mxCell id="eytuUMWvgPrelhzYIndJ-5" style="edgeStyle=orthogonalEdgeStyle;rounded=0;orthogonalLoop=1;jettySize=auto;html=1;entryX=0.5;entryY=0;entryDx=0;entryDy=0;strokeColor=#FF0000;" parent="1" source="eytuUMWvgPrelhzYIndJ-6" target="eytuUMWvgPrelhzYIndJ-7" edge="1">
          <mxGeometry relative="1" as="geometry" />
        </mxCell>
        <mxCell id="eytuUMWvgPrelhzYIndJ-6" value="根据合作上游企业和全上游企业的供应能力实时计算该企业的断链风险概率" style="whiteSpace=wrap;html=1;fillColor=#ffffc0;strokeColor=#ff0000;fontColor=#000000;rounded=1;arcSize=40;" parent="1" vertex="1">
          <mxGeometry x="820" y="620" width="220" height="45" as="geometry" />
        </mxCell>
        <mxCell id="eytuUMWvgPrelhzYIndJ-7" value="断链风险超过预警值" style="rhombus;whiteSpace=wrap;html=1;fontColor=#000000;fillColor=#ffffc0;strokeColor=#ff0000;" parent="1" vertex="1">
          <mxGeometry x="865" y="710" width="130" height="60" as="geometry" />
        </mxCell>
        <mxCell id="eytuUMWvgPrelhzYIndJ-8" value="no" style="edgeStyle=orthogonalEdgeStyle;html=1;align=left;verticalAlign=bottom;endArrow=open;endSize=8;strokeColor=#ff0000;rounded=0;entryX=0;entryY=0.5;entryDx=0;entryDy=0;" parent="1" source="eytuUMWvgPrelhzYIndJ-7" target="eytuUMWvgPrelhzYIndJ-10" edge="1">
          <mxGeometry x="-1" relative="1" as="geometry">
            <mxPoint x="1095" y="740" as="targetPoint" />
          </mxGeometry>
        </mxCell>
        <mxCell id="eytuUMWvgPrelhzYIndJ-9" value="yes" style="edgeStyle=orthogonalEdgeStyle;html=1;align=left;verticalAlign=top;endArrow=open;endSize=8;strokeColor=#ff0000;rounded=0;entryX=0.5;entryY=0;entryDx=0;entryDy=0;" parent="1" source="eytuUMWvgPrelhzYIndJ-7" target="eytuUMWvgPrelhzYIndJ-11" edge="1">
          <mxGeometry x="-1" relative="1" as="geometry">
            <mxPoint x="930" y="820" as="targetPoint" />
          </mxGeometry>
        </mxCell>
        <mxCell id="eytuUMWvgPrelhzYIndJ-10" value="" style="ellipse;html=1;shape=endState;fillColor=#000000;strokeColor=#ff0000;" parent="1" vertex="1">
          <mxGeometry x="1045" y="725" width="30" height="30" as="geometry" />
        </mxCell>
        <mxCell id="eytuUMWvgPrelhzYIndJ-11" value="系统中提示并给该企业发送预警邮件" style="rounded=1;whiteSpace=wrap;html=1;arcSize=40;fontColor=#000000;fillColor=#ffffc0;strokeColor=#ff0000;" parent="1" vertex="1">
          <mxGeometry x="870" y="830" width="120" height="40" as="geometry" />
        </mxCell>
        <mxCell id="eytuUMWvgPrelhzYIndJ-12" value="" style="edgeStyle=orthogonalEdgeStyle;html=1;verticalAlign=bottom;endArrow=open;endSize=8;strokeColor=#ff0000;rounded=0;entryX=0.5;entryY=0;entryDx=0;entryDy=0;" parent="1" source="eytuUMWvgPrelhzYIndJ-11" target="eytuUMWvgPrelhzYIndJ-13" edge="1">
          <mxGeometry relative="1" as="geometry">
            <mxPoint x="930" y="920" as="targetPoint" />
          </mxGeometry>
        </mxCell>
        <mxCell id="eytuUMWvgPrelhzYIndJ-13" value="" style="ellipse;html=1;shape=endState;fillColor=#000000;strokeColor=#ff0000;" parent="1" vertex="1">
          <mxGeometry x="915" y="910" width="30" height="30" as="geometry" />
        </mxCell>
      </root>
    </mxGraphModel>
  </diagram>
  <diagram id="F7cHUicL9OK3q38apgbw" name="新企业入驻">
    <mxGraphModel dx="5293" dy="2800" grid="1" gridSize="10" guides="1" tooltips="1" connect="1" arrows="1" fold="1" page="1" pageScale="1" pageWidth="2339" pageHeight="3300" math="0" shadow="0">
      <root>
        <mxCell id="0" />
        <mxCell id="1" parent="0" />
        <mxCell id="6Dfcr3lirKLdWCuUvu4D-1" value="" style="ellipse;html=1;shape=startState;fillColor=#000000;strokeColor=#ff0000;" parent="1" vertex="1">
          <mxGeometry x="993.5" y="1030" width="30" height="30" as="geometry" />
        </mxCell>
        <mxCell id="6Dfcr3lirKLdWCuUvu4D-2" value="" style="edgeStyle=orthogonalEdgeStyle;html=1;verticalAlign=bottom;endArrow=open;endSize=8;strokeColor=#ff0000;rounded=0;entryX=0.5;entryY=0;entryDx=0;entryDy=0;" parent="1" source="6Dfcr3lirKLdWCuUvu4D-1" target="6Dfcr3lirKLdWCuUvu4D-3" edge="1">
          <mxGeometry relative="1" as="geometry">
            <mxPoint x="1008.5" y="1120" as="targetPoint" />
          </mxGeometry>
        </mxCell>
        <mxCell id="6Dfcr3lirKLdWCuUvu4D-3" value="上中下游企业选择自己所属的类型进行注册" style="rounded=1;whiteSpace=wrap;html=1;arcSize=40;fontColor=#000000;fillColor=#ffffc0;strokeColor=#ff0000;" parent="1" vertex="1">
          <mxGeometry x="946" y="1110" width="125" height="50" as="geometry" />
        </mxCell>
        <mxCell id="6Dfcr3lirKLdWCuUvu4D-4" value="" style="edgeStyle=orthogonalEdgeStyle;html=1;verticalAlign=bottom;endArrow=open;endSize=8;strokeColor=#ff0000;rounded=0;entryX=0.5;entryY=0;entryDx=0;entryDy=0;" parent="1" source="6Dfcr3lirKLdWCuUvu4D-3" target="6Dfcr3lirKLdWCuUvu4D-5" edge="1">
          <mxGeometry relative="1" as="geometry">
            <mxPoint x="1008.5" y="1220" as="targetPoint" />
          </mxGeometry>
        </mxCell>
        <mxCell id="6Dfcr3lirKLdWCuUvu4D-5" value="企业填写基本信息" style="rounded=1;whiteSpace=wrap;html=1;arcSize=40;fontColor=#000000;fillColor=#ffffc0;strokeColor=#ff0000;" parent="1" vertex="1">
          <mxGeometry x="948.5" y="1220" width="120" height="40" as="geometry" />
        </mxCell>
        <mxCell id="6Dfcr3lirKLdWCuUvu4D-6" value="" style="edgeStyle=orthogonalEdgeStyle;html=1;verticalAlign=bottom;endArrow=open;endSize=8;strokeColor=#ff0000;rounded=0;entryX=0.5;entryY=0;entryDx=0;entryDy=0;" parent="1" source="6Dfcr3lirKLdWCuUvu4D-5" target="6Dfcr3lirKLdWCuUvu4D-7" edge="1">
          <mxGeometry relative="1" as="geometry">
            <mxPoint x="1008.5" y="1330" as="targetPoint" />
          </mxGeometry>
        </mxCell>
        <mxCell id="6Dfcr3lirKLdWCuUvu4D-7" value="企业上传资质证明文件进行资质认证" style="rounded=1;whiteSpace=wrap;html=1;arcSize=40;fontColor=#000000;fillColor=#ffffc0;strokeColor=#ff0000;" parent="1" vertex="1">
          <mxGeometry x="946" y="1320" width="125" height="50" as="geometry" />
        </mxCell>
        <mxCell id="6Dfcr3lirKLdWCuUvu4D-8" value="" style="edgeStyle=orthogonalEdgeStyle;html=1;verticalAlign=bottom;endArrow=open;endSize=8;strokeColor=#ff0000;rounded=0;entryX=0;entryY=0.5;entryDx=0;entryDy=0;" parent="1" source="6Dfcr3lirKLdWCuUvu4D-7" target="6Dfcr3lirKLdWCuUvu4D-9" edge="1">
          <mxGeometry relative="1" as="geometry">
            <mxPoint x="1008.5" y="1440" as="targetPoint" />
            <Array as="points" />
          </mxGeometry>
        </mxCell>
        <mxCell id="6Dfcr3lirKLdWCuUvu4D-9" value="认证成功" style="rhombus;whiteSpace=wrap;html=1;fontColor=#000000;fillColor=#ffffc0;strokeColor=#ff0000;" parent="1" vertex="1">
          <mxGeometry x="1133.5" y="1325" width="80" height="40" as="geometry" />
        </mxCell>
        <mxCell id="6Dfcr3lirKLdWCuUvu4D-10" value="no" style="edgeStyle=orthogonalEdgeStyle;html=1;align=left;verticalAlign=bottom;endArrow=open;endSize=8;strokeColor=#ff0000;rounded=0;entryX=0;entryY=0.5;entryDx=0;entryDy=0;" parent="1" source="6Dfcr3lirKLdWCuUvu4D-9" target="6Dfcr3lirKLdWCuUvu4D-12" edge="1">
          <mxGeometry x="-1" relative="1" as="geometry">
            <mxPoint x="1263.5" y="1345" as="targetPoint" />
          </mxGeometry>
        </mxCell>
        <mxCell id="6Dfcr3lirKLdWCuUvu4D-11" value="yes" style="edgeStyle=orthogonalEdgeStyle;html=1;align=left;verticalAlign=top;endArrow=open;endSize=8;strokeColor=#ff0000;rounded=0;entryX=0.5;entryY=0;entryDx=0;entryDy=0;" parent="1" source="6Dfcr3lirKLdWCuUvu4D-9" target="6Dfcr3lirKLdWCuUvu4D-14" edge="1">
          <mxGeometry x="-1" relative="1" as="geometry">
            <mxPoint x="1173.5" y="1420" as="targetPoint" />
          </mxGeometry>
        </mxCell>
        <mxCell id="6Dfcr3lirKLdWCuUvu4D-12" value="重新上传证明文件" style="rounded=1;whiteSpace=wrap;html=1;arcSize=40;fontColor=#000000;fillColor=#ffffc0;strokeColor=#ff0000;" parent="1" vertex="1">
          <mxGeometry x="1273.5" y="1325" width="120" height="40" as="geometry" />
        </mxCell>
        <mxCell id="6Dfcr3lirKLdWCuUvu4D-13" value="" style="edgeStyle=orthogonalEdgeStyle;html=1;verticalAlign=bottom;endArrow=open;endSize=8;strokeColor=#ff0000;rounded=0;entryX=0.5;entryY=0;entryDx=0;entryDy=0;" parent="1" source="6Dfcr3lirKLdWCuUvu4D-12" target="6Dfcr3lirKLdWCuUvu4D-9" edge="1">
          <mxGeometry relative="1" as="geometry">
            <mxPoint x="1203.5" y="1230" as="targetPoint" />
            <Array as="points">
              <mxPoint x="1333.5" y="1290" />
              <mxPoint x="1173.5" y="1290" />
            </Array>
          </mxGeometry>
        </mxCell>
        <mxCell id="6Dfcr3lirKLdWCuUvu4D-14" value="成功入驻平台，发送认证成功邮件" style="rounded=1;whiteSpace=wrap;html=1;arcSize=40;fontColor=#000000;fillColor=#ffffc0;strokeColor=#ff0000;" parent="1" vertex="1">
          <mxGeometry x="1113.5" y="1420" width="120" height="40" as="geometry" />
        </mxCell>
        <mxCell id="6Dfcr3lirKLdWCuUvu4D-15" value="" style="edgeStyle=orthogonalEdgeStyle;html=1;verticalAlign=bottom;endArrow=open;endSize=8;strokeColor=#ff0000;rounded=0;entryX=0.5;entryY=0;entryDx=0;entryDy=0;" parent="1" source="6Dfcr3lirKLdWCuUvu4D-14" target="6Dfcr3lirKLdWCuUvu4D-16" edge="1">
          <mxGeometry relative="1" as="geometry">
            <mxPoint x="1173.5" y="1540" as="targetPoint" />
          </mxGeometry>
        </mxCell>
        <mxCell id="6Dfcr3lirKLdWCuUvu4D-16" value="根据企业注册时所属类型和基本信息给该企业推荐上下游合作企业" style="rounded=1;whiteSpace=wrap;html=1;arcSize=40;fontColor=#000000;fillColor=#ffffc0;strokeColor=#ff0000;" parent="1" vertex="1">
          <mxGeometry x="1098.5" y="1520" width="150" height="60" as="geometry" />
        </mxCell>
        <mxCell id="6Dfcr3lirKLdWCuUvu4D-17" value="" style="edgeStyle=orthogonalEdgeStyle;html=1;verticalAlign=bottom;endArrow=open;endSize=8;strokeColor=#ff0000;rounded=0;entryX=0.5;entryY=0;entryDx=0;entryDy=0;" parent="1" source="6Dfcr3lirKLdWCuUvu4D-16" target="6Dfcr3lirKLdWCuUvu4D-18" edge="1">
          <mxGeometry relative="1" as="geometry">
            <mxPoint x="1173.5" y="1700" as="targetPoint" />
          </mxGeometry>
        </mxCell>
        <mxCell id="6Dfcr3lirKLdWCuUvu4D-18" value="" style="ellipse;html=1;shape=endState;fillColor=#000000;strokeColor=#ff0000;" parent="1" vertex="1">
          <mxGeometry x="1158.5" y="1630" width="30" height="30" as="geometry" />
        </mxCell>
      </root>
    </mxGraphModel>
  </diagram>
  <diagram id="PouH-MXT1nmibOo5Jq8O" name="智能客服">
    <mxGraphModel dx="3970" dy="2100" grid="1" gridSize="10" guides="1" tooltips="1" connect="1" arrows="1" fold="1" page="1" pageScale="1" pageWidth="2339" pageHeight="3300" math="0" shadow="0">
      <root>
        <mxCell id="0" />
        <mxCell id="1" parent="0" />
        <mxCell id="P9e86AwuO8s_7_i-a31N-1" value="智能客服" style="swimlane;childLayout=stackLayout;resizeParent=1;resizeParentMax=0;startSize=20;html=1;" parent="1" vertex="1">
          <mxGeometry x="820" y="860" width="760" height="550" as="geometry" />
        </mxCell>
        <mxCell id="P9e86AwuO8s_7_i-a31N-2" value="yes" style="edgeStyle=orthogonalEdgeStyle;html=1;align=left;verticalAlign=bottom;endArrow=open;endSize=8;strokeColor=#ff0000;rounded=0;" parent="P9e86AwuO8s_7_i-a31N-1" source="P9e86AwuO8s_7_i-a31N-8" target="P9e86AwuO8s_7_i-a31N-11" edge="1">
          <mxGeometry x="-1" relative="1" as="geometry">
            <mxPoint x="320" y="260" as="targetPoint" />
          </mxGeometry>
        </mxCell>
        <mxCell id="P9e86AwuO8s_7_i-a31N-3" value="企业A（咨询企业）" style="swimlane;startSize=20;html=1;" parent="P9e86AwuO8s_7_i-a31N-1" vertex="1">
          <mxGeometry y="20" width="370" height="530" as="geometry" />
        </mxCell>
        <mxCell id="P9e86AwuO8s_7_i-a31N-4" value="" style="ellipse;html=1;shape=startState;fillColor=#000000;strokeColor=#ff0000;" parent="P9e86AwuO8s_7_i-a31N-3" vertex="1">
          <mxGeometry x="170" y="30" width="30" height="30" as="geometry" />
        </mxCell>
        <mxCell id="P9e86AwuO8s_7_i-a31N-5" value="" style="edgeStyle=orthogonalEdgeStyle;html=1;verticalAlign=bottom;endArrow=open;endSize=8;strokeColor=#ff0000;rounded=0;entryX=0.5;entryY=0;entryDx=0;entryDy=0;" parent="P9e86AwuO8s_7_i-a31N-3" source="P9e86AwuO8s_7_i-a31N-4" target="P9e86AwuO8s_7_i-a31N-6" edge="1">
          <mxGeometry relative="1" as="geometry">
            <mxPoint x="185" y="120" as="targetPoint" />
          </mxGeometry>
        </mxCell>
        <mxCell id="P9e86AwuO8s_7_i-a31N-6" value="要了解B企业的情况，发送询问消息" style="rounded=1;whiteSpace=wrap;html=1;arcSize=40;fontColor=#000000;fillColor=#ffffc0;strokeColor=#ff0000;" parent="P9e86AwuO8s_7_i-a31N-3" vertex="1">
          <mxGeometry x="125" y="120" width="120" height="40" as="geometry" />
        </mxCell>
        <mxCell id="P9e86AwuO8s_7_i-a31N-7" value="" style="edgeStyle=orthogonalEdgeStyle;html=1;verticalAlign=bottom;endArrow=open;endSize=8;strokeColor=#ff0000;rounded=0;entryX=0.5;entryY=0;entryDx=0;entryDy=0;" parent="P9e86AwuO8s_7_i-a31N-3" source="P9e86AwuO8s_7_i-a31N-6" target="P9e86AwuO8s_7_i-a31N-8" edge="1">
          <mxGeometry relative="1" as="geometry">
            <mxPoint x="185" y="220" as="targetPoint" />
          </mxGeometry>
        </mxCell>
        <mxCell id="P9e86AwuO8s_7_i-a31N-8" value="对方在线" style="rhombus;whiteSpace=wrap;html=1;fontColor=#000000;fillColor=#ffffc0;strokeColor=#ff0000;" parent="P9e86AwuO8s_7_i-a31N-3" vertex="1">
          <mxGeometry x="135" y="220" width="100" height="40" as="geometry" />
        </mxCell>
        <mxCell id="P9e86AwuO8s_7_i-a31N-9" value="企业B（被咨询企业）" style="swimlane;startSize=20;html=1;" parent="P9e86AwuO8s_7_i-a31N-1" vertex="1">
          <mxGeometry x="370" y="20" width="390" height="530" as="geometry" />
        </mxCell>
        <mxCell id="P9e86AwuO8s_7_i-a31N-10" value="" style="edgeStyle=orthogonalEdgeStyle;rounded=0;orthogonalLoop=1;jettySize=auto;html=1;entryX=0;entryY=0.5;entryDx=0;entryDy=0;strokeColor=#FF0000;" parent="P9e86AwuO8s_7_i-a31N-9" source="P9e86AwuO8s_7_i-a31N-11" target="P9e86AwuO8s_7_i-a31N-14" edge="1">
          <mxGeometry relative="1" as="geometry" />
        </mxCell>
        <mxCell id="P9e86AwuO8s_7_i-a31N-11" value="解答对方问题，讨论合作细节" style="rounded=1;whiteSpace=wrap;html=1;arcSize=40;fontColor=#000000;fillColor=#ffffc0;strokeColor=#ff0000;" parent="P9e86AwuO8s_7_i-a31N-9" vertex="1">
          <mxGeometry x="90" y="225" width="170" height="30" as="geometry" />
        </mxCell>
        <mxCell id="P9e86AwuO8s_7_i-a31N-12" value="智能助手读取B企业的基本信息来回答A的问题" style="rounded=1;whiteSpace=wrap;html=1;arcSize=40;fontColor=#000000;fillColor=#ffffc0;strokeColor=#ff0000;" parent="P9e86AwuO8s_7_i-a31N-9" vertex="1">
          <mxGeometry x="100" y="320" width="150" height="40" as="geometry" />
        </mxCell>
        <mxCell id="P9e86AwuO8s_7_i-a31N-13" value="" style="edgeStyle=orthogonalEdgeStyle;html=1;verticalAlign=bottom;endArrow=open;endSize=8;strokeColor=#ff0000;rounded=0;entryX=0.5;entryY=0;entryDx=0;entryDy=0;" parent="P9e86AwuO8s_7_i-a31N-9" source="P9e86AwuO8s_7_i-a31N-12" target="P9e86AwuO8s_7_i-a31N-15" edge="1">
          <mxGeometry relative="1" as="geometry">
            <mxPoint x="175" y="420" as="targetPoint" />
          </mxGeometry>
        </mxCell>
        <mxCell id="P9e86AwuO8s_7_i-a31N-14" value="" style="ellipse;html=1;shape=endState;fillColor=#000000;strokeColor=#ff0000;" parent="P9e86AwuO8s_7_i-a31N-9" vertex="1">
          <mxGeometry x="300" y="225" width="30" height="30" as="geometry" />
        </mxCell>
        <mxCell id="P9e86AwuO8s_7_i-a31N-15" value="" style="ellipse;html=1;shape=endState;fillColor=#000000;strokeColor=#ff0000;" parent="P9e86AwuO8s_7_i-a31N-9" vertex="1">
          <mxGeometry x="160" y="420" width="30" height="30" as="geometry" />
        </mxCell>
        <mxCell id="P9e86AwuO8s_7_i-a31N-16" value="no" style="edgeStyle=orthogonalEdgeStyle;html=1;align=left;verticalAlign=top;endArrow=open;endSize=8;strokeColor=#ff0000;rounded=0;entryX=0;entryY=0.5;entryDx=0;entryDy=0;" parent="P9e86AwuO8s_7_i-a31N-1" source="P9e86AwuO8s_7_i-a31N-8" target="P9e86AwuO8s_7_i-a31N-12" edge="1">
          <mxGeometry x="-1" relative="1" as="geometry">
            <mxPoint x="185" y="400" as="targetPoint" />
            <Array as="points">
              <mxPoint x="185" y="360" />
            </Array>
          </mxGeometry>
        </mxCell>
      </root>
    </mxGraphModel>
  </diagram>
  <diagram id="UUk6sh0gV0O80_qo19pn" name="消费者个性化定制">
    <mxGraphModel dx="2929" dy="1674" grid="1" gridSize="10" guides="1" tooltips="1" connect="1" arrows="1" fold="1" page="1" pageScale="1" pageWidth="2339" pageHeight="3300" math="0" shadow="0">
      <root>
        <mxCell id="0" />
        <mxCell id="1" parent="0" />
        <mxCell id="ERyQQSPQS6XIaRlQvCkU-1" value="消费者个性化定制" style="swimlane;childLayout=stackLayout;resizeParent=1;resizeParentMax=0;startSize=20;html=1;" parent="1" vertex="1">
          <mxGeometry x="620" y="650" width="1070" height="1190" as="geometry" />
        </mxCell>
        <mxCell id="ERyQQSPQS6XIaRlQvCkU-2" value="消费者" style="swimlane;startSize=20;html=1;" parent="ERyQQSPQS6XIaRlQvCkU-1" vertex="1">
          <mxGeometry y="20" width="540" height="1170" as="geometry" />
        </mxCell>
        <mxCell id="ERyQQSPQS6XIaRlQvCkU-3" value="" style="ellipse;html=1;shape=startState;fillColor=#000000;strokeColor=#ff0000;" parent="ERyQQSPQS6XIaRlQvCkU-2" vertex="1">
          <mxGeometry x="180" y="40" width="30" height="30" as="geometry" />
        </mxCell>
        <mxCell id="ERyQQSPQS6XIaRlQvCkU-4" value="" style="edgeStyle=orthogonalEdgeStyle;html=1;verticalAlign=bottom;endArrow=open;endSize=8;strokeColor=#ff0000;rounded=0;entryX=0.5;entryY=0;entryDx=0;entryDy=0;" parent="ERyQQSPQS6XIaRlQvCkU-2" source="ERyQQSPQS6XIaRlQvCkU-3" target="ERyQQSPQS6XIaRlQvCkU-5" edge="1">
          <mxGeometry relative="1" as="geometry">
            <mxPoint x="195" y="130" as="targetPoint" />
          </mxGeometry>
        </mxCell>
        <mxCell id="ERyQQSPQS6XIaRlQvCkU-5" value="打开信息收集页面" style="rounded=1;whiteSpace=wrap;html=1;arcSize=40;fontColor=#000000;fillColor=#ffffc0;strokeColor=#ff0000;" parent="ERyQQSPQS6XIaRlQvCkU-2" vertex="1">
          <mxGeometry x="135" y="110" width="120" height="40" as="geometry" />
        </mxCell>
        <mxCell id="ERyQQSPQS6XIaRlQvCkU-6" value="" style="edgeStyle=orthogonalEdgeStyle;html=1;verticalAlign=bottom;endArrow=open;endSize=8;strokeColor=#ff0000;rounded=0;entryX=0.5;entryY=0;entryDx=0;entryDy=0;" parent="ERyQQSPQS6XIaRlQvCkU-2" source="ERyQQSPQS6XIaRlQvCkU-5" target="ERyQQSPQS6XIaRlQvCkU-7" edge="1">
          <mxGeometry relative="1" as="geometry">
            <mxPoint x="195" y="200" as="targetPoint" />
          </mxGeometry>
        </mxCell>
        <mxCell id="ERyQQSPQS6XIaRlQvCkU-7" value="使用AI辅助设计" style="rhombus;whiteSpace=wrap;html=1;fontColor=#000000;fillColor=#ffffc0;strokeColor=#ff0000;" parent="ERyQQSPQS6XIaRlQvCkU-2" vertex="1">
          <mxGeometry x="145" y="200" width="100" height="60" as="geometry" />
        </mxCell>
        <mxCell id="ERyQQSPQS6XIaRlQvCkU-8" value="no" style="edgeStyle=orthogonalEdgeStyle;html=1;align=left;verticalAlign=bottom;endArrow=open;endSize=8;strokeColor=#ff0000;rounded=0;entryX=0;entryY=0.5;entryDx=0;entryDy=0;" parent="ERyQQSPQS6XIaRlQvCkU-2" source="ERyQQSPQS6XIaRlQvCkU-7" target="ERyQQSPQS6XIaRlQvCkU-10" edge="1">
          <mxGeometry x="-1" relative="1" as="geometry">
            <mxPoint x="295" y="230" as="targetPoint" />
          </mxGeometry>
        </mxCell>
        <mxCell id="ERyQQSPQS6XIaRlQvCkU-9" value="yes" style="edgeStyle=orthogonalEdgeStyle;html=1;align=left;verticalAlign=top;endArrow=open;endSize=8;strokeColor=#ff0000;rounded=0;entryX=0.5;entryY=0;entryDx=0;entryDy=0;" parent="ERyQQSPQS6XIaRlQvCkU-2" source="ERyQQSPQS6XIaRlQvCkU-7" target="ERyQQSPQS6XIaRlQvCkU-12" edge="1">
          <mxGeometry x="-1" relative="1" as="geometry">
            <mxPoint x="195" y="300" as="targetPoint" />
          </mxGeometry>
        </mxCell>
        <mxCell id="ERyQQSPQS6XIaRlQvCkU-10" value="手动输入对该个性化产品的描述，可上传图片" style="rounded=1;whiteSpace=wrap;html=1;arcSize=40;fontColor=#000000;fillColor=#ffffc0;strokeColor=#ff0000;" parent="ERyQQSPQS6XIaRlQvCkU-2" vertex="1">
          <mxGeometry x="295" y="205" width="120" height="50" as="geometry" />
        </mxCell>
        <mxCell id="ERyQQSPQS6XIaRlQvCkU-11" value="" style="edgeStyle=orthogonalEdgeStyle;html=1;verticalAlign=bottom;endArrow=open;endSize=8;strokeColor=#ff0000;rounded=0;entryX=0.903;entryY=0.379;entryDx=0;entryDy=0;entryPerimeter=0;" parent="ERyQQSPQS6XIaRlQvCkU-2" source="ERyQQSPQS6XIaRlQvCkU-10" target="ERyQQSPQS6XIaRlQvCkU-16" edge="1">
          <mxGeometry relative="1" as="geometry">
            <mxPoint x="355" y="480" as="targetPoint" />
          </mxGeometry>
        </mxCell>
        <mxCell id="ERyQQSPQS6XIaRlQvCkU-12" value="AI根据预输入的问题逐步询问消费者" style="rounded=1;whiteSpace=wrap;html=1;arcSize=40;fontColor=#000000;fillColor=#ffffc0;strokeColor=#ff0000;" parent="ERyQQSPQS6XIaRlQvCkU-2" vertex="1">
          <mxGeometry x="135" y="300" width="120" height="40" as="geometry" />
        </mxCell>
        <mxCell id="ERyQQSPQS6XIaRlQvCkU-13" value="" style="edgeStyle=orthogonalEdgeStyle;html=1;verticalAlign=bottom;endArrow=open;endSize=8;strokeColor=#ff0000;rounded=0;" parent="ERyQQSPQS6XIaRlQvCkU-2" source="ERyQQSPQS6XIaRlQvCkU-12" target="ERyQQSPQS6XIaRlQvCkU-14" edge="1">
          <mxGeometry relative="1" as="geometry">
            <mxPoint x="195" y="380" as="targetPoint" />
          </mxGeometry>
        </mxCell>
        <mxCell id="ERyQQSPQS6XIaRlQvCkU-14" value="根据回答描述AI生成图片，也可上传本地图片" style="rounded=1;whiteSpace=wrap;html=1;arcSize=40;fontColor=#000000;fillColor=#ffffc0;strokeColor=#ff0000;" parent="ERyQQSPQS6XIaRlQvCkU-2" vertex="1">
          <mxGeometry x="130" y="380" width="130" height="40" as="geometry" />
        </mxCell>
        <mxCell id="ERyQQSPQS6XIaRlQvCkU-15" value="" style="edgeStyle=orthogonalEdgeStyle;html=1;verticalAlign=bottom;endArrow=open;endSize=8;strokeColor=#ff0000;rounded=0;entryX=0.101;entryY=0.379;entryDx=0;entryDy=0;entryPerimeter=0;" parent="ERyQQSPQS6XIaRlQvCkU-2" source="ERyQQSPQS6XIaRlQvCkU-14" target="ERyQQSPQS6XIaRlQvCkU-16" edge="1">
          <mxGeometry relative="1" as="geometry">
            <mxPoint x="195" y="470" as="targetPoint" />
          </mxGeometry>
        </mxCell>
        <mxCell id="ERyQQSPQS6XIaRlQvCkU-16" value="" style="shape=line;html=1;strokeWidth=6;strokeColor=#ff0000;" parent="ERyQQSPQS6XIaRlQvCkU-2" vertex="1">
          <mxGeometry x="175" y="470" width="200" height="10" as="geometry" />
        </mxCell>
        <mxCell id="ERyQQSPQS6XIaRlQvCkU-17" value="" style="edgeStyle=orthogonalEdgeStyle;html=1;verticalAlign=bottom;endArrow=open;endSize=8;strokeColor=#ff0000;rounded=0;entryX=0.5;entryY=0;entryDx=0;entryDy=0;" parent="ERyQQSPQS6XIaRlQvCkU-2" source="ERyQQSPQS6XIaRlQvCkU-16" target="ERyQQSPQS6XIaRlQvCkU-18" edge="1">
          <mxGeometry relative="1" as="geometry">
            <mxPoint x="275" y="550" as="targetPoint" />
          </mxGeometry>
        </mxCell>
        <mxCell id="ERyQQSPQS6XIaRlQvCkU-18" value="提交设计方案" style="rounded=1;whiteSpace=wrap;html=1;arcSize=40;fontColor=#000000;fillColor=#ffffc0;strokeColor=#ff0000;" parent="ERyQQSPQS6XIaRlQvCkU-2" vertex="1">
          <mxGeometry x="225" y="550" width="100" height="30" as="geometry" />
        </mxCell>
        <mxCell id="ERyQQSPQS6XIaRlQvCkU-22" value="智能家居单品厂商" style="swimlane;startSize=20;html=1;" parent="ERyQQSPQS6XIaRlQvCkU-1" vertex="1">
          <mxGeometry x="540" y="20" width="530" height="1170" as="geometry" />
        </mxCell>
        <mxCell id="gojlDc6tFyXWOI72VhOo-2" value="" style="edgeStyle=orthogonalEdgeStyle;shape=connector;rounded=0;orthogonalLoop=1;jettySize=auto;html=1;strokeColor=#ff0000;align=center;verticalAlign=bottom;fontFamily=Helvetica;fontSize=11;fontColor=default;labelBackgroundColor=default;endArrow=open;endSize=8;" edge="1" parent="ERyQQSPQS6XIaRlQvCkU-22" source="ERyQQSPQS6XIaRlQvCkU-23" target="gojlDc6tFyXWOI72VhOo-1">
          <mxGeometry relative="1" as="geometry" />
        </mxCell>
        <mxCell id="ERyQQSPQS6XIaRlQvCkU-23" value="查看消费者提交的设计方案" style="rounded=1;whiteSpace=wrap;html=1;arcSize=40;fontColor=#000000;fillColor=#ffffc0;strokeColor=#ff0000;" parent="ERyQQSPQS6XIaRlQvCkU-22" vertex="1">
          <mxGeometry x="200" y="546" width="120" height="40" as="geometry" />
        </mxCell>
        <mxCell id="ERyQQSPQS6XIaRlQvCkU-19" value="消费者获得奖励（如：免费获得该产品一件）" style="rounded=1;whiteSpace=wrap;html=1;arcSize=40;fontColor=#000000;fillColor=#ffffc0;strokeColor=#ff0000;" parent="ERyQQSPQS6XIaRlQvCkU-22" vertex="1">
          <mxGeometry x="-335" y="970" width="130" height="44" as="geometry" />
        </mxCell>
        <mxCell id="ERyQQSPQS6XIaRlQvCkU-20" value="" style="edgeStyle=orthogonalEdgeStyle;html=1;verticalAlign=bottom;endArrow=open;endSize=8;strokeColor=#ff0000;rounded=0;entryX=0.497;entryY=0.094;entryDx=0;entryDy=0;entryPerimeter=0;" parent="ERyQQSPQS6XIaRlQvCkU-22" source="ERyQQSPQS6XIaRlQvCkU-19" target="ERyQQSPQS6XIaRlQvCkU-21" edge="1">
          <mxGeometry relative="1" as="geometry">
            <mxPoint x="-270" y="1070" as="targetPoint" />
          </mxGeometry>
        </mxCell>
        <mxCell id="ERyQQSPQS6XIaRlQvCkU-21" value="" style="ellipse;html=1;shape=endState;fillColor=#000000;strokeColor=#ff0000;" parent="ERyQQSPQS6XIaRlQvCkU-22" vertex="1">
          <mxGeometry x="-285" y="1070" width="30" height="30" as="geometry" />
        </mxCell>
        <mxCell id="ERyQQSPQS6XIaRlQvCkU-25" value="采纳" style="rhombus;whiteSpace=wrap;html=1;fontColor=#000000;fillColor=#ffffc0;strokeColor=#ff0000;" parent="ERyQQSPQS6XIaRlQvCkU-22" vertex="1">
          <mxGeometry x="220" y="800" width="80" height="40" as="geometry" />
        </mxCell>
        <mxCell id="ERyQQSPQS6XIaRlQvCkU-26" value="no" style="edgeStyle=orthogonalEdgeStyle;html=1;align=left;verticalAlign=bottom;endArrow=open;endSize=8;strokeColor=#ff0000;rounded=0;entryX=0;entryY=0.5;entryDx=0;entryDy=0;" parent="ERyQQSPQS6XIaRlQvCkU-22" source="ERyQQSPQS6XIaRlQvCkU-25" target="ERyQQSPQS6XIaRlQvCkU-28" edge="1">
          <mxGeometry x="-1" relative="1" as="geometry">
            <mxPoint x="400" y="820" as="targetPoint" />
          </mxGeometry>
        </mxCell>
        <mxCell id="ERyQQSPQS6XIaRlQvCkU-27" value="yes" style="edgeStyle=orthogonalEdgeStyle;html=1;align=left;verticalAlign=top;endArrow=open;endSize=8;strokeColor=#ff0000;rounded=0;entryX=0.5;entryY=0;entryDx=0;entryDy=0;" parent="ERyQQSPQS6XIaRlQvCkU-22" source="ERyQQSPQS6XIaRlQvCkU-25" target="ERyQQSPQS6XIaRlQvCkU-29" edge="1">
          <mxGeometry x="-1" relative="1" as="geometry">
            <mxPoint x="260" y="900" as="targetPoint" />
          </mxGeometry>
        </mxCell>
        <mxCell id="ERyQQSPQS6XIaRlQvCkU-28" value="" style="ellipse;html=1;shape=endState;fillColor=#000000;strokeColor=#ff0000;" parent="ERyQQSPQS6XIaRlQvCkU-22" vertex="1">
          <mxGeometry x="400" y="805" width="30" height="30" as="geometry" />
        </mxCell>
        <mxCell id="ERyQQSPQS6XIaRlQvCkU-29" value="尝试开发该产品" style="rounded=1;whiteSpace=wrap;html=1;arcSize=40;fontColor=#000000;fillColor=#ffffc0;strokeColor=#ff0000;" parent="ERyQQSPQS6XIaRlQvCkU-22" vertex="1">
          <mxGeometry x="205" y="900" width="110" height="24" as="geometry" />
        </mxCell>
        <mxCell id="ERyQQSPQS6XIaRlQvCkU-30" value="" style="edgeStyle=orthogonalEdgeStyle;html=1;verticalAlign=bottom;endArrow=open;endSize=8;strokeColor=#ff0000;rounded=0;entryX=0.5;entryY=0;entryDx=0;entryDy=0;" parent="ERyQQSPQS6XIaRlQvCkU-22" source="ERyQQSPQS6XIaRlQvCkU-29" target="ERyQQSPQS6XIaRlQvCkU-31" edge="1">
          <mxGeometry relative="1" as="geometry">
            <mxPoint x="260" y="970" as="targetPoint" />
          </mxGeometry>
        </mxCell>
        <mxCell id="ERyQQSPQS6XIaRlQvCkU-31" value="成功开发" style="rhombus;whiteSpace=wrap;html=1;fontColor=#000000;fillColor=#ffffc0;strokeColor=#ff0000;" parent="ERyQQSPQS6XIaRlQvCkU-22" vertex="1">
          <mxGeometry x="220" y="970" width="80" height="40" as="geometry" />
        </mxCell>
        <mxCell id="ERyQQSPQS6XIaRlQvCkU-32" value="no" style="edgeStyle=orthogonalEdgeStyle;html=1;align=left;verticalAlign=bottom;endArrow=open;endSize=8;strokeColor=#ff0000;rounded=0;entryX=0.5;entryY=0;entryDx=0;entryDy=0;" parent="ERyQQSPQS6XIaRlQvCkU-22" source="ERyQQSPQS6XIaRlQvCkU-31" target="ERyQQSPQS6XIaRlQvCkU-33" edge="1">
          <mxGeometry x="-1" relative="1" as="geometry">
            <mxPoint x="260" y="1040" as="targetPoint" />
          </mxGeometry>
        </mxCell>
        <mxCell id="ERyQQSPQS6XIaRlQvCkU-33" value="" style="ellipse;html=1;shape=endState;fillColor=#000000;strokeColor=#ff0000;" parent="ERyQQSPQS6XIaRlQvCkU-22" vertex="1">
          <mxGeometry x="245" y="1040" width="30" height="30" as="geometry" />
        </mxCell>
        <mxCell id="ERyQQSPQS6XIaRlQvCkU-35" value="yes" style="edgeStyle=orthogonalEdgeStyle;html=1;align=left;verticalAlign=top;endArrow=open;endSize=8;strokeColor=#ff0000;rounded=0;" parent="ERyQQSPQS6XIaRlQvCkU-22" source="ERyQQSPQS6XIaRlQvCkU-31" target="ERyQQSPQS6XIaRlQvCkU-19" edge="1">
          <mxGeometry x="-1" relative="1" as="geometry">
            <mxPoint x="-210" y="990" as="targetPoint" />
          </mxGeometry>
        </mxCell>
        <mxCell id="gojlDc6tFyXWOI72VhOo-3" style="edgeStyle=orthogonalEdgeStyle;shape=connector;rounded=0;orthogonalLoop=1;jettySize=auto;html=1;entryX=0.5;entryY=0;entryDx=0;entryDy=0;strokeColor=#ff0000;align=center;verticalAlign=bottom;fontFamily=Helvetica;fontSize=11;fontColor=default;labelBackgroundColor=default;endArrow=open;endSize=8;" edge="1" parent="ERyQQSPQS6XIaRlQvCkU-22" source="gojlDc6tFyXWOI72VhOo-1" target="ERyQQSPQS6XIaRlQvCkU-25">
          <mxGeometry relative="1" as="geometry" />
        </mxCell>
        <mxCell id="gojlDc6tFyXWOI72VhOo-1" value="将浏览记录进行保存，用以保护知识产权" style="whiteSpace=wrap;html=1;fillColor=#ffffc0;strokeColor=#ff0000;fontColor=#000000;rounded=1;arcSize=40;" vertex="1" parent="ERyQQSPQS6XIaRlQvCkU-22">
          <mxGeometry x="195" y="630" width="130" height="60" as="geometry" />
        </mxCell>
        <mxCell id="ERyQQSPQS6XIaRlQvCkU-34" value="" style="edgeStyle=orthogonalEdgeStyle;html=1;verticalAlign=bottom;endArrow=open;endSize=8;strokeColor=#ff0000;rounded=0;entryX=0;entryY=0.5;entryDx=0;entryDy=0;" parent="ERyQQSPQS6XIaRlQvCkU-1" source="ERyQQSPQS6XIaRlQvCkU-18" target="ERyQQSPQS6XIaRlQvCkU-23" edge="1">
          <mxGeometry relative="1" as="geometry">
            <mxPoint x="700" y="585" as="targetPoint" />
          </mxGeometry>
        </mxCell>
      </root>
    </mxGraphModel>
  </diagram>
</mxfile>
